<svg id="Bag" xmlns="http://www.w3.org/2000/svg" width="11.882" height="13.189" viewBox="0 0 11.882 13.189">
  <path id="Combined_Shape" data-name="Combined Shape" d="M8.666,13.167H3.206A3.279,3.279,0,0,1,.6,12.286a3.482,3.482,0,0,1-.53-2.864L.581,5.343a2.688,2.688,0,0,1,.786-1.588,1.8,1.8,0,0,1,1.222-.466H2.64a.447.447,0,0,1,0-.149,3.293,3.293,0,0,1,6.58,0H9.2a.341.341,0,0,1-.03.149h.1a1.757,1.757,0,0,1,1.2.481,2.89,2.89,0,0,1,.81,1.573l.506,4.08a3.38,3.38,0,0,1-.6,2.786A3.236,3.236,0,0,1,8.666,13.167ZM7.827,5.481a.6.6,0,1,0,.582.6.593.593,0,0,0-.582-.6Zm-3.81,0a.6.6,0,1,0,.582.6.593.593,0,0,0-.582-.6ZM5.9.851A2.293,2.293,0,0,0,3.61,3.139a.417.417,0,0,1,0,.149H8.227A.43.43,0,0,1,8.2,3.139,2.293,2.293,0,0,0,5.9.851Z" transform="translate(0.001 0.014)" fill="#212226"/>
</svg>
