<svg id="Lock" xmlns="http://www.w3.org/2000/svg" width="13.642" height="16.05" viewBox="0 0 13.642 16.05">
  <path id="Fill_1" data-name="Fill 1" d="M10.217,10.662H3.425A3.392,3.392,0,0,1,0,7.312V3.351A3.392,3.392,0,0,1,3.425,0h6.791a3.392,3.392,0,0,1,3.425,3.351V7.312A3.392,3.392,0,0,1,10.217,10.662Zm-3.4-6.914a.7.7,0,0,0-.709.694v1.77a.713.713,0,0,0,1.426,0V4.442A.707.707,0,0,0,6.817,3.748Z" transform="translate(0 5.388)" fill="#7da4ef"/>
  <path id="Fill_4" data-name="Fill 4" d="M8.864,4.33v1.18a3.332,3.332,0,0,0-.9-.12h-.53V4.33a2.971,2.971,0,0,0-3-2.935A2.975,2.975,0,0,0,1.427,4.314V5.391H.905A3.063,3.063,0,0,0,0,5.518V4.33A4.387,4.387,0,0,1,4.42,0,4.382,4.382,0,0,1,8.864,4.33" transform="translate(2.389 0)" fill="#7da4ef" opacity="0.4"/>
</svg>
