<svg id="Iconly_Bold_Call" data-name="Iconly/Bold/Call" xmlns="http://www.w3.org/2000/svg" width="12" height="12" viewBox="0 0 12 12">
  <g id="Call">
    <path id="Call-2" data-name="Call" d="M9.7,7.428a1.368,1.368,0,0,0-1,.264c-.289.168-.839.614-1.154.5A7.159,7.159,0,0,1,3.754,4.5c-.116-.322.328-.875.5-1.168a1.4,1.4,0,0,0,.262-1.011A8.223,8.223,0,0,0,3.114.369,1.147,1.147,0,0,0,2.413,0C1.512-.038.506,1.164.33,1.452A2.336,2.336,0,0,0,.337,3.87c1.077,2.657,5.151,6.667,7.818,7.785A3.223,3.223,0,0,0,9.5,12a1.751,1.751,0,0,0,1.051-.329c.228-.132,1.48-1.188,1.447-2.113a1.165,1.165,0,0,0-.365-.7A8.28,8.28,0,0,0,9.7,7.428" transform="translate(0 0)" fill="#dadad9"/>
  </g>
</svg>
