<svg id="Camera" xmlns="http://www.w3.org/2000/svg" width="16" height="14" viewBox="0 0 16 14">
  <path id="Camera-2" data-name="Camera" d="M12.512,14H3.488A3.443,3.443,0,0,1,0,10.613V6A3.443,3.443,0,0,1,3.488,2.61a.159.159,0,0,0,.153-.093l.048-.093.066-.136c.209-.428.445-.912.589-1.192A1.951,1.951,0,0,1,6.112,0H9.88a1.957,1.957,0,0,1,1.776,1.1c.126.245.317.638.5,1.017l.114.233.081.171a.181.181,0,0,0,.16.093A3.443,3.443,0,0,1,16,6v4.615A3.443,3.443,0,0,1,12.512,14ZM8,4.98a3.183,3.183,0,0,0-2.232.9,2.966,2.966,0,0,0-.912,2.152,3.019,3.019,0,0,0,.92,2.16A3.2,3.2,0,0,0,8,11.087a3.162,3.162,0,0,0,2.216-.893,2.986,2.986,0,0,0,.008-4.32A3.17,3.17,0,0,0,8,4.98Zm4.488-.186a.7.7,0,1,0,.729.707A.714.714,0,0,0,12.488,4.794ZM8,9.921A1.96,1.96,0,0,1,6.624,9.37a1.848,1.848,0,0,1-.568-1.336V8.026A1.792,1.792,0,0,1,6.616,6.7,1.992,1.992,0,0,1,9.376,6.7a1.851,1.851,0,0,1,.568,1.336A1.929,1.929,0,0,1,8,9.921Z" fill="#fff"/>
</svg>
