<svg xmlns="http://www.w3.org/2000/svg" width="12.442" height="9.331" viewBox="0 0 12.442 9.331">
  <path id="Path_21613" data-name="Path 21613" d="M11.4,8.925v3.888a.518.518,0,0,1-.518.518h-.518a.518.518,0,0,1-.518-.518v-.518H2.592v.518a.518.518,0,0,1-.518.518H1.555a.518.518,0,0,1-.518-.518V8.925L.393,8.764A.518.518,0,0,1,0,8.261V7.888a.259.259,0,0,1,.259-.259h.972L2.34,4.673A1.037,1.037,0,0,1,3.311,4H9.131a1.037,1.037,0,0,1,.971.673l1.109,2.956h.972a.259.259,0,0,1,.259.259v.373a.518.518,0,0,1-.393.5ZM2.074,9.7v1.037a.518.518,0,0,0,.518.518H4.274a.259.259,0,0,0,.229-.381h0A2.5,2.5,0,0,0,2.074,9.7Zm8.295,0a2.5,2.5,0,0,0-2.429,1.174h0a.259.259,0,0,0,.229.381H9.85a.518.518,0,0,0,.518-.518ZM3.11,5.037,2.3,7.465a.518.518,0,0,0,.492.682H9.649a.518.518,0,0,0,.492-.682L9.331,5.037Z" transform="translate(0 -4)" fill="#dadad9"/>
</svg>
