<svg xmlns="http://www.w3.org/2000/svg" width="189.002" height="164.738" viewBox="0 0 189.002 164.738">
  <g id="Group_10281" data-name="Group 10281" transform="translate(-66.998 -148.719)">
    <g id="Group_10280" data-name="Group 10280" transform="translate(66.998 148.719)">
      <g id="Group_10267" data-name="Group 10267" transform="translate(13.882)">
        <ellipse id="Ellipse_788" data-name="Ellipse 788" cx="7.792" cy="7.792" rx="7.792" ry="7.792" transform="translate(136.259 12.59)" fill="none" stroke="#d8e1ef" stroke-miterlimit="10" stroke-width="0.709"/>
        <path id="Path_21064" data-name="Path 21064" d="M1209.411,460.273a1.961,1.961,0,1,1,2.773,0A1.963,1.963,0,0,1,1209.411,460.273Z" transform="translate(-1050.234 -377.52)" fill="none" stroke="#d8e1ef" stroke-miterlimit="10" stroke-width="0.709"/>
        <path id="Path_21065" data-name="Path 21065" d="M917.41,268.833h-1.441a.253.253,0,0,1-.246-.263v-1.537a.257.257,0,0,0-.25-.263h0a.257.257,0,0,0-.251.263v1.537a.257.257,0,0,1-.251.263h-1.441a.257.257,0,0,0-.251.263h0a.257.257,0,0,0,.251.263h1.441a.257.257,0,0,1,.251.263v1.537a.257.257,0,0,0,.251.263h0a.257.257,0,0,0,.25-.263v-1.537a.256.256,0,0,1,.246-.263h1.441a.257.257,0,0,0,.251-.263h0A.262.262,0,0,0,917.41,268.833Z" transform="translate(-878.098 -266.77)" fill="#d8e1ef"/>
        <path id="Path_21066" data-name="Path 21066" d="M928.674,283.149h-2.359a.405.405,0,0,1-.405-.405v-2.359a.405.405,0,0,0-.405-.405h0a.405.405,0,0,0-.4.405v2.359a.405.405,0,0,1-.405.405h-2.359a.405.405,0,0,0-.405.405h0a.405.405,0,0,0,.405.405h2.359a.405.405,0,0,1,.405.405v2.359a.405.405,0,0,0,.4.405h0a.405.405,0,0,0,.405-.405v-2.359a.405.405,0,0,1,.405-.405h2.359a.405.405,0,0,0,.405-.405h0A.4.4,0,0,0,928.674,283.149Z" transform="translate(-883.136 -274.464)" fill="#d8e1ef"/>
        <g id="Group_4870" data-name="Group 4870" transform="translate(8.377 24.723)">
          <ellipse id="Ellipse_789" data-name="Ellipse 789" cx="15.092" cy="15.092" rx="15.092" ry="15.092" transform="translate(0 3.175) rotate(-6.039)" fill="#d8e1ef"/>
          <ellipse id="Ellipse_790" data-name="Ellipse 790" cx="13.843" cy="13.843" rx="13.843" ry="13.843" transform="matrix(0.159, -0.987, 0.987, 0.159, 0.742, 28.051)" fill="#fff"/>
          <g id="Group_4869" data-name="Group 4869" transform="translate(10.591 7.744)">
            <path id="Path_21067" data-name="Path 21067" d="M882.092,344.52c.063,1.658.067,3.311.075,4.965-.008,1.654-.029,3.307-.075,4.961l0,.2-.2,0q-1.86-.044-3.721-.138c-.618-.033-1.24-.054-1.858-.092s-1.24-.075-1.858-.125c.622-.029,1.24-.033,1.862-.05s1.24-.013,1.862-.017c1.24-.013,2.481,0,3.721.017l-.209.2c.021-1.654.071-3.307.13-4.961S881.958,346.174,882.092,344.52Z" transform="translate(-874.45 -344.52)" fill="#d8e1ef"/>
          </g>
        </g>
        <ellipse id="Ellipse_791" data-name="Ellipse 791" cx="4.543" cy="4.543" rx="4.543" ry="4.543" transform="matrix(0.923, -0.385, 0.385, 0.923, 0, 69.121)" fill="none" stroke="#d8e1ef" stroke-miterlimit="10" stroke-width="0.709"/>
      </g>
      <g id="Group_10268" data-name="Group 10268" transform="translate(0 20.324)">
        <g id="Group_4872" data-name="Group 4872" transform="translate(17.868 52.93)">
          <path id="Path_21068" data-name="Path 21068" d="M859.827,513.414c-7.266-.789-18.883-11.6-20.683-21.46-.96-5.241-.969-11.266,2.038-16.081,3.311-5.3,9.279-7.671,13.751-11.868,5.542-5.2,8.652-13.1,14.511-17.831,4.41-3.558,10.118-4.857,14.9-3.391s10.214,6.9,11.25,12.252c1.453,7.533,2.092,10.707,3.24,15.7.94,4.076-.167,6.076,1.057,10.022,2.919,9.4-1.111,21.577-9.053,28.337s-16.9,6.147-28.542,5.237" transform="translate(-838.573 -442.191)" fill="#ecf0f7"/>
        </g>
        <g id="Group_4873" data-name="Group 4873" transform="translate(162.43 78.167)">
          <path id="Path_21069" data-name="Path 21069" d="M1186.755,563.574c.94-2.668,2.689-5.274,5.408-6.226,3-1.052,7.107-.192,8.815-2.81a3.444,3.444,0,0,0-.58-4.3,3.655,3.655,0,0,0-4.431-.267c-.652-2.1,1.249-4.084,3.169-5.178s4.209-1.992,5.149-3.963-1.132-5.028-3.061-3.951c-.677.38-1.182,1.182-1.967,1.144a1.378,1.378,0,0,1-1.069-1.729,3.884,3.884,0,0,1,1.366-1.812q2.63-2.343,5.262-4.681c1.386-1.232,2.852-2.614,3.124-4.431s-1.453-3.959-3.236-3.382c-1.278.413-2.347,2.025-3.566,1.445-1.1-.53-.714-2.155-.058-3.153,1.666-2.526,3.992-4.589,5.617-7.141s2.447-5.955.848-8.556a3.8,3.8,0,0,0-3.178-1.958c-1.72.058-2.919,1.629-3.746,3.1a36.439,36.439,0,0,0-4.351,12.974c-1.441-.088-1.958-1.867-2.255-3.245s-1.42-3.073-2.748-2.543a2.04,2.04,0,0,0-1.057,1.34c-1.366,4.218,3.174,8,4.4,12.285a4.681,4.681,0,0,1-.163,3.466,2.628,2.628,0,0,1-3.027,1.345c-1.307-.464-2.831-2.088-3.633-.994-.422.572-.017,1.361.359,1.971a25.308,25.308,0,0,1,3.278,8.268c.363,1.791.451,3.859-.794,5.2s-4.184.927-4.322-.894c-.877-.121-1.57.827-1.545,1.691a5.75,5.75,0,0,0,.94,2.409,14,14,0,0,1,.6,11.918" transform="translate(-1184.758 -502.626)" fill="#d8e1ef"/>
        </g>
        <g id="Group_4874" data-name="Group 4874" transform="translate(0 62.27)">
          <path id="Path_21070" data-name="Path 21070" d="M815.4,540.973,803.729,523.2a1.473,1.473,0,0,1,1.733-2.2,17.544,17.544,0,0,1,8,6.928c.9-5.049-3-9.458-6.615-12.933-2.873-2.764-5.955-6.059-6.715-9.847a2.049,2.049,0,0,1,2.614-2.363,17.74,17.74,0,0,1,8.289,5.8A74.419,74.419,0,0,0,799,492.045a16.976,16.976,0,0,1-2.961-3.808A2.264,2.264,0,0,1,798.63,485a16.308,16.308,0,0,1,5.679,3.178c-4.335-5.888-8.907-12.741-7.575-20.069.28-1.541.885-3.149,2.852-3.5a3.847,3.847,0,0,1,2.372.359c1.725.86,2.714,2.606,3.524,4.339a41.934,41.934,0,0,1,3.679,13.238.86.86,0,0,0,1.57.4c1.482-2.23.973-6.8,3.666-7.529a2.649,2.649,0,0,1,3.115,1.691c.91,2.338-.2,4.527-1.09,6.635a39.141,39.141,0,0,0-3.082,15.618q1.8-.983,3.616-1.933a3.126,3.126,0,0,1,4.364,3.833c-1.278,3.98-4.38,8.1-4.639,12.39-.038.656.021,1.4.889,1.616a1.906,1.906,0,0,0,2.042-.956c1.8-3.057,5.153-.555,5.17,2.025.017,2.138-1.382,4-2.723,5.671s-2.76,3.5-2.8,5.642L823,526.466a1.767,1.767,0,0,1,2.021,2.593,15.948,15.948,0,0,1-3.541,4.055c-2.23,1.979-4.606,4.848-3.566,7.633" transform="translate(-795.784 -464.558)" fill="#d8e1ef"/>
        </g>
        <g id="Group_4875" data-name="Group 4875" transform="translate(109.263)">
          <path id="Path_21071" data-name="Path 21071" d="M1073.763,391.645c24.842,1.524,32.68-7.02,39.224-13.73,3.483-3.566,5.487-11.5,5.349-16.591-.15-5.608-4.067-10.218-5.775-15.522-2.113-6.573-.777-14.085-3.4-20.449a16.191,16.191,0,0,0-11.066-9.567c-4.848-1.115-12.26.509-15.864,4.126-5.07,5.09-7.224,7.224-10.745,10.511-2.873,2.685-2.936,4.735-5.992,7.187-7.274,5.842-9.993,17.054-6.61,25.945s4.234,21.259,13.35,21.117" transform="translate(-1057.439 -315.439)" fill="#ecf0f7"/>
        </g>
        <ellipse id="Ellipse_792" data-name="Ellipse 792" cx="91.234" cy="4.23" rx="91.234" ry="4.23" transform="translate(2.433 135.954)" fill="#ecf0f7"/>
      </g>
      <g id="Group_10269" data-name="Group 10269" transform="translate(65.589 7.73)">
        <g id="Group_4887" data-name="Group 4887">
          <g id="base_1_">
            <g id="Group_4884" data-name="Group 4884">
              <path id="Path_21072" data-name="Path 21072" d="M1008.339,430.588H962.446a9.6,9.6,0,0,1-9.6-9.6V294.876a9.6,9.6,0,0,1,9.6-9.6h45.893a9.6,9.6,0,0,1,9.6,9.6V420.991A9.6,9.6,0,0,1,1008.339,430.588Z" transform="translate(-952.85 -285.28)" fill="#fff" stroke="#1d1d1b" stroke-miterlimit="10" stroke-width="1"/>
              <g id="Group_4883" data-name="Group 4883" transform="translate(6.255 6.886)">
                <g id="Group_4882" data-name="Group 4882">
                  <g id="Group_4878" data-name="Group 4878">
                    <text id="_8:30" data-name="8:30" transform="translate(0 1)" fill="#817e84" font-size="1" font-family="SegoeUI, Segoe UI"><tspan x="0" y="0">8:30</tspan></text>
                  </g>
                  <g id="Group_4879" data-name="Group 4879" transform="translate(41.575 0.221)">
                    <rect id="Rectangle_2266" data-name="Rectangle 2266" width="0.505" height="0.877" transform="translate(0 1.086)" fill="#817e84"/>
                    <rect id="Rectangle_2267" data-name="Rectangle 2267" width="0.505" height="1.232" transform="translate(0.722 0.731)" fill="#817e84"/>
                    <rect id="Rectangle_2268" data-name="Rectangle 2268" width="0.505" height="1.57" transform="translate(1.445 0.393)" fill="#817e84"/>
                    <rect id="Rectangle_2269" data-name="Rectangle 2269" width="0.505" height="1.963" transform="translate(2.163)" fill="#817e84"/>
                  </g>
                  <g id="Group_4880" data-name="Group 4880" transform="translate(45.004 0.226)">
                    <path id="Path_21073" data-name="Path 21073" d="M1075.938,303.3a1.536,1.536,0,0,1,2.247,0l.338-.359a2,2,0,0,0-2.923,0Z" transform="translate(-1075.6 -302.31)" fill="#817e84"/>
                    <path id="Path_21074" data-name="Path 21074" d="M1077.018,304.728a.946.946,0,0,1,.668-.288.929.929,0,0,1,.668.288l.338-.359a1.4,1.4,0,0,0-1.006-.438,1.386,1.386,0,0,0-1.006.438Z" transform="translate(-1076.229 -303.254)" fill="#817e84"/>
                    <path id="Path_21075" data-name="Path 21075" d="M1078.114,306.161a.3.3,0,0,1,.434,0l.342-.363a.767.767,0,0,0-1.111,0Z" transform="translate(-1076.87 -304.203)" fill="#817e84"/>
                  </g>
                  <g id="Group_4881" data-name="Group 4881" transform="translate(48.633 0.459)">
                    <path id="Path_21076" data-name="Path 21076" d="M1087.4,304.357h-3.019a.093.093,0,0,1-.092-.092v-1.3a.093.093,0,0,1,.092-.092h3.019a.093.093,0,0,1,.092.092v1.3A.092.092,0,0,1,1087.4,304.357Z" transform="translate(-1084.29 -302.87)" fill="#817e84"/>
                    <path id="Path_21077" data-name="Path 21077" d="M1092.3,304.529h-.071a.093.093,0,0,1-.092-.092v-.455a.093.093,0,0,1,.092-.092h.071a.093.093,0,0,1,.092.092v.455A.087.087,0,0,1,1092.3,304.529Z" transform="translate(-1088.862 -303.464)" fill="#817e84"/>
                  </g>
                </g>
              </g>
            </g>
          </g>
          <g id="map" transform="translate(1.695 11.329)">
            <g id="Group_4886" data-name="Group 4886">
              <path id="Path_21078" data-name="Path 21078" d="M1014.543,409.406H965.794a4.616,4.616,0,0,1-4.614-4.614V327.914a4.616,4.616,0,0,1,4.614-4.614h48.749a4.616,4.616,0,0,1,4.614,4.614v76.878A4.613,4.613,0,0,1,1014.543,409.406Z" transform="translate(-959.397 -318.753)" fill="#f0efed"/>
              <g id="Group_4885" data-name="Group 4885">
                <line id="Line_205" data-name="Line 205" x1="2.43" y2="5.992" transform="translate(40.005 17.58)" fill="none" stroke="#fff" stroke-miterlimit="10" stroke-width="0.992"/>
                <line id="Line_206" data-name="Line 206" x2="8.953" y2="1.082" transform="translate(13.45 74.251)" fill="none" stroke="#fff" stroke-miterlimit="10" stroke-width="0.992"/>
                <line id="Line_207" data-name="Line 207" x2="15.2" y2="26.617" transform="translate(7.45 1.67)" fill="none" stroke="#fff" stroke-miterlimit="10" stroke-width="0.992"/>
                <line id="Line_208" data-name="Line 208" x1="3.266" y2="8.515" transform="translate(46.281 15.714)" fill="none" stroke="#fff" stroke-miterlimit="10" stroke-width="0.992"/>
                <path id="Path_21079" data-name="Path 21079" d="M1023.93,372.79l11.125,11.271a3.543,3.543,0,0,1,.985,2.046h0a3.517,3.517,0,0,1,.029.468v51.559l4.677,5.3" transform="translate(-995.943 -347.576)" fill="none" stroke="#fff" stroke-miterlimit="10" stroke-width="1.417"/>
                <line id="Line_209" data-name="Line 209" x1="11.204" y2="25.406" transform="translate(28.187)" fill="none" stroke="#fff" stroke-miterlimit="10" stroke-width="1.417"/>
                <line id="Line_210" data-name="Line 210" x1="8.74" y1="4.322" transform="translate(33.666 13.292)" fill="none" stroke="#fff" stroke-miterlimit="10" stroke-width="0.992"/>
                <line id="Line_211" data-name="Line 211" x2="20.679" y2="0.134" transform="translate(40.005 78.573)" fill="none" stroke="#fff" stroke-miterlimit="10" stroke-width="0.992"/>
                <path id="Path_21080" data-name="Path 21080" d="M958.68,371.05l10.4,10.477,17.171-9.625" transform="translate(-957.941 -346.563)" fill="none" stroke="#fff" stroke-miterlimit="10" stroke-width="1.417"/>
                <path id="Path_21081" data-name="Path 21081" d="M983.5,396.14l1.75,8.343a74.676,74.676,0,0,1,1.211,22.809l-3.023,30" transform="translate(-972.361 -361.176)" fill="none" stroke="#fff" stroke-miterlimit="10" stroke-width="1.417"/>
                <path id="Path_21082" data-name="Path 21082" d="M990.62,416.285l10.544-3.295c0-.785.121-4.389.121-4.389l7.633-2.752" transform="translate(-976.543 -366.831)" fill="none" stroke="#fff" stroke-miterlimit="10" stroke-width="1.417"/>
                <line id="Line_212" data-name="Line 212" x2="1.908" y2="21.902" transform="translate(28.805 40.464)" fill="none" stroke="#fff" stroke-miterlimit="10" stroke-width="0.992"/>
                <line id="Line_213" data-name="Line 213" x1="3.044" y2="6.681" transform="translate(32.375 32.705)" fill="none" stroke="#fff" stroke-miterlimit="10" stroke-width="0.992"/>
                <line id="Line_214" data-name="Line 214" x1="3.449" y1="15.225" transform="translate(15.756 32.313)" fill="none" stroke="#fff" stroke-miterlimit="10" stroke-width="0.992"/>
                <line id="Line_215" data-name="Line 215" x1="0.338" y2="11.162" transform="translate(34.221 62.108)" fill="none" stroke="#fff" stroke-miterlimit="10" stroke-width="0.992"/>
                <line id="Line_216" data-name="Line 216" y1="2.13" x2="5.942" transform="translate(17.109 37.027)" fill="none" stroke="#fff" stroke-miterlimit="10" stroke-width="0.992"/>
                <line id="Line_217" data-name="Line 217" x1="1.015" y1="4.222" transform="translate(22.036 32.806)" fill="none" stroke="#fff" stroke-miterlimit="10" stroke-width="0.992"/>
                <path id="Path_21083" data-name="Path 21083" d="M1046.815,375.407h11.321V355.372l3.387-12.832-19.572-9.429" transform="translate(-1006.438 -324.466)" fill="none" stroke="#fff" stroke-miterlimit="10" stroke-width="1.417"/>
                <path id="Path_21084" data-name="Path 21084" d="M988.45,498.69" transform="translate(-975.279 -420.902)" fill="#fff"/>
                <path id="Path_21085" data-name="Path 21085" d="M958.09,457.3l6.276,2.092-2.092,11.788,8.619,1.57" transform="translate(-957.597 -396.796)" fill="none" stroke="#fff" stroke-miterlimit="10" stroke-width="1.417"/>
                <line id="Line_218" data-name="Line 218" x2="7.755" y2="1.57" transform="translate(6.034 67.052)" fill="none" stroke="#fff" stroke-miterlimit="10" stroke-width="0.992"/>
                <path id="Path_21086" data-name="Path 21086" d="M969.467,411.665l-6.894,2.489-5.662-3.274" transform="translate(-956.91 -369.76)" fill="none" stroke="#fff" stroke-miterlimit="10" stroke-width="1.417"/>
                <line id="Line_219" data-name="Line 219" x2="0.121" y2="17.284" transform="translate(49.977 78.707)" fill="none" stroke="#fff" stroke-miterlimit="10" stroke-width="0.992"/>
                <line id="Line_220" data-name="Line 220" x1="13.785" y1="0.656" transform="translate(26.22 83.68)" fill="none" stroke="#fff" stroke-miterlimit="10" stroke-width="1.417"/>
                <path id="Path_21087" data-name="Path 21087" d="M1001.642,501.685l2.092-27.765-12.924-1.57" transform="translate(-976.654 -405.561)" fill="none" stroke="#fff" stroke-miterlimit="10" stroke-width="1.417"/>
                <path id="Path_21088" data-name="Path 21088" d="M999.06,514.944l.677-6.815,3.771.464.539-5.433" transform="translate(-981.458 -423.505)" fill="none" stroke="#fff" stroke-miterlimit="10" stroke-width="0.992"/>
                <path id="Path_21089" data-name="Path 21089" d="M1053.3,453.613c.184,0,12.924-.393,12.924-.393v3.666l9.972.129" transform="translate(-1013.049 -394.42)" fill="none" stroke="#fff" stroke-miterlimit="10" stroke-width="0.992"/>
                <path id="Path_21090" data-name="Path 21090" d="M1077.18,520.459c.367-.129,7.015-.129,7.015-.129" transform="translate(-1026.957 -433.505)" fill="none" stroke="#fff" stroke-miterlimit="10" stroke-width="0.992"/>
                <line id="Line_221" data-name="Line 221" x1="7.876" y2="0.134" transform="translate(43.822 30.906)" fill="none" stroke="#fff" stroke-miterlimit="10" stroke-width="0.992"/>
                <path id="Path_21091" data-name="Path 21091" d="M1011.59,473.949c.063-.2,1.537-13.359,1.537-13.359l15.447.393" transform="translate(-988.756 -398.712)" fill="none" stroke="#fff" stroke-miterlimit="10" stroke-width="1.417"/>
              </g>
            </g>
          </g>
        </g>
        <path id="Path_21092" data-name="Path 21092" d="M993.277,341.66a2.079,2.079,0,0,0-2.017,2.138c-.008,1.19,1.967,4.36,1.967,4.36s2.025-3.14,2.034-4.33A2.081,2.081,0,0,0,993.277,341.66Zm-.025,3.153a1.094,1.094,0,1,1,1.086-1.086A1.087,1.087,0,0,1,993.252,344.813Z" transform="translate(-975.221 -318.116)" fill="#74b960"/>
        <path id="Path_21093" data-name="Path 21093" d="M995.31,355.81,1001.7,366.7l-7.1,4.506,3.266,15.254,5.825-1.6,2.556,15.689h13.922" transform="translate(-977.166 -326.358)" fill="none" stroke="#7da4ef" stroke-linecap="round" stroke-miterlimit="10" stroke-width="1.417"/>
        <g id="Group_4888" data-name="Group 4888" transform="translate(40.932 72.238)">
          <path id="Path_21094" data-name="Path 21094" d="M1055.121,460.4A2.125,2.125,0,1,1,1053,458.27,2.126,2.126,0,0,1,1055.121,460.4Z" transform="translate(-1050.87 -458.27)" fill="#74b960"/>
          <path id="Path_21095" data-name="Path 21095" d="M1055.508,461.764a1.144,1.144,0,1,1-1.144-1.144A1.146,1.146,0,0,1,1055.508,461.764Z" transform="translate(-1052.239 -459.639)" fill="#74b960"/>
        </g>
        <g id="Group_4889" data-name="Group 4889" transform="translate(48.336 74.451)">
          <path id="Path_21096" data-name="Path 21096" d="M1084.131,485.349h1.44a.254.254,0,0,1,.246.263v1.537a.257.257,0,0,0,.251.263h0a.257.257,0,0,0,.25-.263v-1.537a.257.257,0,0,1,.251-.263h1.44a.253.253,0,0,0,.246-.263h0a.256.256,0,0,0-.246-.263h-1.44a.257.257,0,0,1-.251-.263v-1.537a.257.257,0,0,0-.25-.263h0a.257.257,0,0,0-.251.263v1.537a.256.256,0,0,1-.246.263h-1.44a.257.257,0,0,0-.251.263h0A.26.26,0,0,0,1084.131,485.349Z" transform="translate(-1077.499 -474.746)" fill="#fff"/>
          <path id="Path_21097" data-name="Path 21097" d="M1069,467.55h2.359a.405.405,0,0,1,.405.405v2.359a.405.405,0,0,0,.405.405h0a.405.405,0,0,0,.405-.405v-2.359a.405.405,0,0,1,.405-.405h2.359a.405.405,0,0,0,.405-.405h0a.405.405,0,0,0-.405-.405h-2.359a.405.405,0,0,1-.405-.405v-2.359a.406.406,0,0,0-.405-.405h0a.406.406,0,0,0-.405.405v2.359a.405.405,0,0,1-.405.405H1069a.405.405,0,0,0-.405.405h0A.4.4,0,0,0,1069,467.55Z" transform="translate(-1068.6 -463.57)" fill="#fff"/>
        </g>
      </g>
      <g id="Group_10270" data-name="Group 10270" transform="translate(57.701 89.99)">
        <g id="Group_4891" data-name="Group 4891" transform="translate(1.39 22.295)">
          <path id="Path_21098" data-name="Path 21098" d="M938.456,571.335q-1.015-8.838-1.157-17.743a12.792,12.792,0,0,1,.505-4.581,13.179,13.179,0,0,1,2.932-4.188,30.14,30.14,0,0,1,5.671-5.224,22.271,22.271,0,0,1,9.5-3.032,85.509,85.509,0,0,1,8.594-.438q12.9-.226,25.807-.447a21.834,21.834,0,0,1,13.534,3.211c3.449,1.746,7.091,3.671,9,7.032,1.558,2.731,1.491,5.913,1.625,9.057a88.972,88.972,0,0,1-.53,16.1,2.914,2.914,0,0,1-1.044,2,3.289,3.289,0,0,1-1.754.459c-6.606.393-13.292-.977-19.823.1" transform="translate(-937.291 -535.661)" fill="#7da4ef"/>
        </g>
        <path id="Path_21099" data-name="Path 21099" d="M951.447,620.89h-7.416a1.492,1.492,0,0,0-1.491,1.491v8.1a1.492,1.492,0,0,0,1.491,1.491h7.416a1.492,1.492,0,0,0,1.491-1.491v-8.1A1.492,1.492,0,0,0,951.447,620.89Z" transform="translate(-938.958 -563.004)" fill="#38303b"/>
        <rect id="Rectangle_2270" data-name="Rectangle 2270" width="10.402" height="6.452" transform="translate(3.582 59.247)" fill="#211e23" opacity="0.58"/>
        <path id="Path_21100" data-name="Path 21100" d="M1102.837,620.89h-7.416a1.492,1.492,0,0,0-1.491,1.491v8.1a1.492,1.492,0,0,0,1.491,1.491h7.416a1.492,1.492,0,0,0,1.491-1.491v-8.1A1.492,1.492,0,0,0,1102.837,620.89Z" transform="translate(-1027.13 -563.004)" fill="#38303b"/>
        <rect id="Rectangle_2271" data-name="Rectangle 2271" width="10.402" height="6.452" transform="translate(66.801 59.247)" fill="#211e23" opacity="0.58"/>
        <path id="Path_21101" data-name="Path 21101" d="M1024.318,491.023H991.75l4.184-7.667a2.082,2.082,0,0,1,1.829-1.086H1018.3a2.086,2.086,0,0,1,1.829,1.086Z" transform="translate(-967.619 -482.27)" fill="#7da4ef"/>
        <path id="Path_21102" data-name="Path 21102" d="M1024.955,492.194H995.59l3.925-6.539a1.309,1.309,0,0,1,1.119-.635h19.272a1.3,1.3,0,0,1,1.119.635Z" transform="translate(-969.855 -483.872)" fill="#f0efed"/>
        <rect id="Rectangle_2272" data-name="Rectangle 2272" width="21.518" height="6.873" transform="translate(29.731 2.297)" fill="none"/>
        <path id="Path_21103" data-name="Path 21103" d="M1016.87,520.406,955,521.463l6.506-17.184a3.5,3.5,0,0,1,3.182-2.372l42.08-.317a3.466,3.466,0,0,1,3.174,2.242Z" transform="translate(-946.215 -493.522)" fill="#7da4ef"/>
        <path id="Path_21104" data-name="Path 21104" d="M1017.548,522.514l-58.408.965,6.143-15.689a3.287,3.287,0,0,1,3-2.167l39.725-.292a3.275,3.275,0,0,1,3,2.05Z" transform="translate(-948.626 -495.7)" fill="#f0efed"/>
        <path id="Path_21105" data-name="Path 21105" d="M1021.421,586.083s-12.87,1.178-17.171,1.173c-4.218,0-16.833-1.173-16.833-1.173a1.539,1.539,0,0,1-1.687-1.324v-1.67a1.539,1.539,0,0,1,1.687-1.324s12.511-1.115,16.687-1.115c4.33,0,17.313,1.115,17.313,1.115a1.539,1.539,0,0,1,1.687,1.324v1.67A1.532,1.532,0,0,1,1021.421,586.083Z" transform="translate(-964.112 -539.568)" fill="#f0efed"/>
        <path id="Path_21106" data-name="Path 21106" d="M1021.792,609.461h-40.18a.551.551,0,0,1-.551-.551v-.539a.551.551,0,0,1,.551-.551h40.18a.551.551,0,0,1,.551.551v.539A.553.553,0,0,1,1021.792,609.461Z" transform="translate(-961.392 -555.392)" fill="#f0efed"/>
        <path id="Path_21107" data-name="Path 21107" d="M1012.363,617.84H937.1a2.346,2.346,0,0,0-2.347,2.347v2.76a2.346,2.346,0,0,0,2.347,2.347h75.266a2.346,2.346,0,0,0,2.347-2.347v-2.76A2.349,2.349,0,0,0,1012.363,617.84Z" transform="translate(-934.421 -561.228)" fill="#c4c4c4"/>
        <path id="Path_21108" data-name="Path 21108" d="M934.75,628.72v.91a1.905,1.905,0,0,0,1.787,2h76.381a1.9,1.9,0,0,0,1.787-2v-.91Z" transform="translate(-934.421 -567.564)" fill="#38303b" opacity="0.14"/>
        <g id="Group_4892" data-name="Group 4892" transform="translate(0 22.835)">
          <path id="Path_21109" data-name="Path 21109" d="M943.378,540.907a4,4,0,0,1-2.113-.6,4.85,4.85,0,0,1-.885-1.023,5.9,5.9,0,0,0-2.585-2.125,3.019,3.019,0,0,0-3.157.564,2.866,2.866,0,0,0-.1,3.57,4.356,4.356,0,0,0,3.378,1.629,11.57,11.57,0,0,0,2.276-.213l3.437-.551" transform="translate(-933.962 -536.954)" fill="#7da4ef"/>
        </g>
        <g id="Group_4893" data-name="Group 4893" transform="translate(69.882 22.835)">
          <path id="Path_21110" data-name="Path 21110" d="M1101.557,540.907a4,4,0,0,0,2.113-.6,4.85,4.85,0,0,0,.885-1.023,5.9,5.9,0,0,1,2.585-2.125,3.019,3.019,0,0,1,3.157.564,2.866,2.866,0,0,1,.1,3.57,4.356,4.356,0,0,1-3.378,1.629,11.57,11.57,0,0,1-2.276-.213l-3.437-.551" transform="translate(-1101.31 -536.954)" fill="#7da4ef"/>
        </g>
        <g id="Group_4894" data-name="Group 4894" transform="translate(4.465 37.809)">
          <path id="Path_21111" data-name="Path 21111" d="M958.784,580.72a12.581,12.581,0,0,1-11.488-2.368,6.984,6.984,0,0,1-2.614-4.113,1.336,1.336,0,0,1,.033-.681,1.4,1.4,0,0,1,1.177-.664c3.332-.447,6.64.977,9.517,2.719a16.723,16.723,0,0,1,3.516,2.994c.5.539.889,1.466.317,1.925" transform="translate(-944.654 -572.812)" fill="#f0efed"/>
        </g>
        <g id="Group_4895" data-name="Group 4895" transform="translate(61.235 37.809)">
          <path id="Path_21112" data-name="Path 21112" d="M1081.345,580.72a12.581,12.581,0,0,0,11.488-2.368,6.982,6.982,0,0,0,2.614-4.113,1.339,1.339,0,0,0-.033-.681,1.4,1.4,0,0,0-1.178-.664c-3.332-.447-6.64.977-9.517,2.719a16.717,16.717,0,0,0-3.516,2.994c-.5.539-.889,1.466-.317,1.925" transform="translate(-1080.602 -572.812)" fill="#f0efed"/>
        </g>
      </g>
      <g id="Group_10271" data-name="Group 10271" transform="translate(125.842 35.817)">
        <g id="Group_4961" data-name="Group 4961" transform="translate(0.6 26.276)">
          <g id="Group_4955" data-name="Group 4955">
            <g id="Group_4912" data-name="Group 4912" transform="translate(35.25 51.34)">
              <path id="Path_21113" data-name="Path 21113" d="M1207.578,560.144h-21.865a2.723,2.723,0,0,1-2.723-2.723V555.83c0-5.274,2.359-9.55,9.55-9.55h8.21c7.537,0,9.55,4.276,9.55,9.55v1.591A2.723,2.723,0,0,1,1207.578,560.144Z" transform="translate(-1182.99 -542.993)" fill="#9fbbf1"/>
              <g id="Group_4902" data-name="Group 4902" transform="translate(4.526 3.736)">
                <g id="Group_4899" data-name="Group 4899" transform="translate(0 0.007)">
                  <g id="Group_4898" data-name="Group 4898">
                    <path id="Path_21114" data-name="Path 21114" d="M1194.89,560.559a25,25,0,0,1-.238-10.127,25.623,25.623,0,0,1,.685-2.8.208.208,0,0,0-.4-.113,25.412,25.412,0,0,0-.948,10.252,26.274,26.274,0,0,0,.5,2.9c.059.259.464.15.4-.113Z" transform="translate(-1193.829 -547.373)" fill="#38303b"/>
                  </g>
                </g>
                <g id="Group_4901" data-name="Group 4901" transform="translate(17.258)">
                  <g id="Group_4900" data-name="Group 4900">
                    <path id="Path_21115" data-name="Path 21115" d="M1236.09,560.75a28.417,28.417,0,0,0-.522-13.246.208.208,0,0,0-.4.113,28.141,28.141,0,0,1,.939,10.135,27.087,27.087,0,0,1-.417,2.89c-.054.263.347.376.4.109Z" transform="translate(-1235.158 -547.356)" fill="#38303b"/>
                  </g>
                </g>
              </g>
              <g id="Group_4911" data-name="Group 4911" transform="translate(7.326)">
                <g id="Group_4904" data-name="Group 4904" transform="translate(0.566 0.996)">
                  <g id="Group_4903" data-name="Group 4903">
                    <path id="Path_21116" data-name="Path 21116" d="M1202.282,544.669a7.036,7.036,0,0,1,4.038-3.27,5.6,5.6,0,0,1,4.752.94,7.657,7.657,0,0,1,2.088,2.3c.138.23.5.021.359-.209a7.453,7.453,0,0,0-4.335-3.453,6.013,6.013,0,0,0-5.065,1.036,8.155,8.155,0,0,0-2.2,2.443.21.21,0,0,0,.363.209Z" transform="translate(-1201.89 -540.796)" fill="#38303b"/>
                  </g>
                </g>
                <g id="Group_4906" data-name="Group 4906" transform="translate(11.513 4.454)">
                  <g id="Group_4905" data-name="Group 4905">
                    <path id="Path_21117" data-name="Path 21117" d="M1228.245,549.408a1,1,0,0,0-.1.793.776.776,0,0,0,.5.576.716.716,0,0,0,.743-.309.913.913,0,0,0,.1-.864.744.744,0,0,0-.81-.514.21.21,0,0,0,.109.405c.05-.013-.033,0,0,0h.029a.114.114,0,0,1,.038,0s-.05-.013-.012,0c.021,0,.038.013.059.017-.05-.017.021.013.033.021s.042.033.017.013.017.017.017.017a.484.484,0,0,1,.046.05c.025.029,0,0,0,0s.013.021.021.029c.017.029.033.054.05.083,0,0,.017.042.008.017s.008.029.008.025a.458.458,0,0,1,.021.071c0,.013,0,.025.008.038.013.058,0-.025,0,.008s0,.063,0,.1a.167.167,0,0,1,0,.046c0-.008.008-.042,0,0a.386.386,0,0,1-.017.067c0,.012-.008.021-.013.033-.017.05.013-.025,0,0l-.037.075c-.008.013-.05.067-.021.029a.433.433,0,0,1-.042.046c-.008.008-.021.017-.029.025s-.029.025-.008.008-.013.008-.017.008l-.038.025-.025.013c-.029.012.008,0,.008,0s-.054.017-.063.017c-.029.008-.013,0-.008,0h-.046c-.042,0,.042.013,0,0-.008,0-.05-.008-.054-.017s.038.021.008,0l-.029-.017a.177.177,0,0,1-.029-.017s.037.038.012.008l-.05-.05c-.008-.008-.021-.029,0,.008,0-.008-.012-.017-.017-.025a.27.27,0,0,1-.033-.058c-.008-.013-.033-.075-.012-.025l-.025-.075c-.008-.025-.012-.05-.021-.075a.07.07,0,0,1,0-.029c-.008-.046,0,.038,0-.008a1.014,1.014,0,0,1,0-.159s.008-.054,0-.021,0-.013,0-.017a.617.617,0,0,1,.021-.084.077.077,0,0,0,.008-.029c.017-.046,0,.008,0,0s.025-.05.042-.071a.2.2,0,1,0-.351-.2Z" transform="translate(-1228.106 -549.076)" fill="#38303b"/>
                  </g>
                </g>
                <g id="Group_4908" data-name="Group 4908" transform="translate(0 4.454)">
                  <g id="Group_4907" data-name="Group 4907">
                    <path id="Path_21118" data-name="Path 21118" d="M1201.117,549.082a.808.808,0,0,0-.547.606.928.928,0,0,0,.18.86.705.705,0,0,0,.8.171.8.8,0,0,0,.418-.693.944.944,0,0,0-.347-.839.206.206,0,0,0-.284.075.21.21,0,0,0,.075.284c-.054-.042.009.008.017.021s.012.017.021.025c.029.033-.025-.042,0,0a.362.362,0,0,1,.033.054l.012.025.013.025c.008.021.008.017,0-.013a.558.558,0,0,1,.038.134c0,.013,0,.029.008.042.008.042,0-.013,0-.013s0,.075,0,.088v.079a.116.116,0,0,1,0,.038c0,.05.008-.046,0,0a.848.848,0,0,1-.037.146c-.013.042.017-.029,0-.008a.1.1,0,0,1-.017.029.439.439,0,0,1-.033.058c-.025.038.033-.033,0,0l-.021.021-.029.029c-.029.029.034-.021,0,0a.519.519,0,0,0-.062.038c-.021.017.05-.017.008,0l-.037.013a.053.053,0,0,1-.025,0c-.042.013.05,0,0,0h-.075c-.042,0,.038.013.013,0-.008,0-.021,0-.029-.008a.371.371,0,0,0-.063-.021c.017,0,.042.021,0,0a.089.089,0,0,1-.021-.013l-.033-.021c-.038-.021.029.029,0,0s-.038-.033-.054-.05-.021-.017-.021-.025c0,.008.012.013.017.021,0-.008-.012-.017-.017-.025l-.038-.063c-.017-.033,0,0,0,.008a.3.3,0,0,1-.021-.054.428.428,0,0,1-.017-.071c-.008-.05,0,.046,0,0a.072.072,0,0,0,0-.029v-.075c0-.017,0-.029,0-.046,0-.046-.008.038,0,0a1.149,1.149,0,0,1,.046-.171c.017-.046-.021.042,0,0,.008-.013.013-.025.021-.038a.7.7,0,0,1,.046-.071c.025-.042-.029.034,0,0a.244.244,0,0,1,.029-.033.113.113,0,0,1,.025-.021c.009,0,.013-.013.021-.017-.025.017-.029.021-.017.013s.046-.025.063-.038-.05.017-.008,0l.046-.013a.212.212,0,0,0,.146-.259.2.2,0,0,0-.251-.167Z" transform="translate(-1200.535 -549.076)" fill="#38303b"/>
                  </g>
                </g>
                <g id="Group_4910" data-name="Group 4910" transform="translate(2.553)">
                  <g id="Group_4909" data-name="Group 4909">
                    <path id="Path_21119" data-name="Path 21119" d="M1214.512,540.777v-.543c0-.171.05-.422-.083-.551a2.813,2.813,0,0,0-.564-.359,6.44,6.44,0,0,0-.61-.309,6.717,6.717,0,0,0-1.29-.438,6.5,6.5,0,0,0-2.6-.067,6.368,6.368,0,0,0-2.514.985c-.192.138-.15.376-.163.593s-.025.43-.038.643c-.017.267.4.267.417,0,.021-.342.038-.685.058-1.031-.033.058-.071.121-.1.18a6.263,6.263,0,0,1,7.174.146c-.033-.058-.071-.121-.1-.18v.927a.211.211,0,0,0,.422,0Z" transform="translate(-1206.649 -538.41)" fill="#38303b"/>
                  </g>
                </g>
              </g>
            </g>
            <g id="Group_4914" data-name="Group 4914" transform="translate(37.864 25.078)">
              <g id="Group_4913" data-name="Group 4913">
                <path id="Path_21120" data-name="Path 21120" d="M1194.315,476.284c1.274,4.719,1.917,7.588,2.969,12.081.393,1.666,1.545,6.377,1.9,8.039.4,1.9-1.177,3.04-2.159.33-.794-2.192-1.625-3.846-2.372-5.779-2.038-5.282-4.138-9.421-5.4-15.434" transform="translate(-1189.25 -475.52)" fill="#86514d"/>
              </g>
            </g>
            <g id="Group_4915" data-name="Group 4915" transform="translate(16.091 88.681)">
              <path id="Path_21121" data-name="Path 21121" d="M1137.811,627.96c.134.818.267,1.641.4,2.46a1.693,1.693,0,0,1,.029.48c-.079.626-.8.969-1.082,1.537a.4.4,0,0,0-.05.192c.021.213.3.28.522.288.639.025,1.278.046,1.917.071.242.008.526,0,.66-.2a.763.763,0,0,0,.092-.3q.307-2.324.618-4.652" transform="translate(-1137.109 -627.83)" fill="#86514d"/>
            </g>
            <g id="Group_4922" data-name="Group 4922" transform="translate(30.661 88.681)">
              <g id="Group_4916" data-name="Group 4916" transform="translate(0.438)">
                <path id="Path_21122" data-name="Path 21122" d="M1176.111,627.96c-.13.818-.263,1.641-.392,2.46a1.693,1.693,0,0,0-.029.48c.079.626.789.969,1.065,1.537a.355.355,0,0,1,.046.192c-.021.213-.3.28-.514.288-.631.025-1.257.046-1.887.071-.238.008-.518,0-.651-.2a.7.7,0,0,1-.088-.3q-.307-2.324-.61-4.652" transform="translate(-1173.05 -627.83)" fill="#86514d"/>
              </g>
              <g id="Group_4917" data-name="Group 4917" transform="translate(0 4.073)">
                <path id="Path_21123" data-name="Path 21123" d="M1181.914,641.144c-1.566.059-2.848.1-4.41.167a2.812,2.812,0,0,1-1.407-.192c-.234-.121-.468-.317-.726-.267-.2.042-.342.221-.526.309a1.248,1.248,0,0,1-.526.088c-.547.013-1.094.025-1.641.033a.745.745,0,0,1-.514-.117.714.714,0,0,1-.159-.593,9.362,9.362,0,0,1,.451-2.468c.059-.18.146-.384.33-.443a.651.651,0,0,1,.5.129,1.911,1.911,0,0,0,2,.171,2.386,2.386,0,0,1,.443-.33,1.064,1.064,0,0,1,.605-.008,19.937,19.937,0,0,1,5.011,1.629,2.153,2.153,0,0,1,.948.71.8.8,0,0,1-.138,1.073" transform="translate(-1172.001 -637.584)" fill="#38303b"/>
              </g>
              <g id="Group_4919" data-name="Group 4919" transform="translate(6.054 4.434)">
                <g id="Group_4918" data-name="Group 4918">
                  <path id="Path_21124" data-name="Path 21124" d="M1187.1,638.478a1.56,1.56,0,0,0-.6,1.1.212.212,0,0,0,.063.146.221.221,0,0,0,.146.063.213.213,0,0,0,.209-.209c0-.038,0,.033,0,.008,0-.008,0-.017,0-.029l.012-.063c.008-.042.021-.084.029-.125s.025-.079.042-.121c.008-.025,0,0,0,.013,0-.013.008-.021.013-.033a.4.4,0,0,1,.029-.058.852.852,0,0,1,.059-.1.6.6,0,0,0,.038-.054s.029-.038.008-.013,0,0,0-.008a.6.6,0,0,1,.088-.092.418.418,0,0,1,.046-.042.091.091,0,0,0,.021-.017c-.021.017-.025.021-.013.013s.013-.008.017-.013a.208.208,0,1,0-.209-.359Z" transform="translate(-1186.499 -638.449)" fill="#f09532"/>
                </g>
              </g>
              <g id="Group_4921" data-name="Group 4921" transform="translate(4.473 3.983)">
                <g id="Group_4920" data-name="Group 4920">
                  <path id="Path_21125" data-name="Path 21125" d="M1183.443,637.427a2.85,2.85,0,0,0-.722,1.24.21.21,0,1,0,.405.113c.017-.054.029-.1.05-.155.009-.025.017-.05.025-.071s.013-.029.017-.046.008-.021,0,0a2.734,2.734,0,0,1,.146-.292,2.915,2.915,0,0,1,.175-.263c.021-.029-.029.038.008-.013.008-.008.017-.021.025-.029s.033-.038.05-.059c.038-.042.075-.084.117-.125a.21.21,0,1,0-.3-.3Z" transform="translate(-1182.713 -637.367)" fill="#f09532"/>
                </g>
              </g>
            </g>
            <g id="Group_4923" data-name="Group 4923" transform="translate(9.862 92.804)">
              <path id="Path_21126" data-name="Path 21126" d="M1122.714,641.264c1.566.058,2.848.1,4.41.167a2.811,2.811,0,0,0,1.407-.192c.234-.121.468-.317.727-.267.2.042.342.221.526.309a1.247,1.247,0,0,0,.526.088c.547.013,1.094.025,1.641.033a.745.745,0,0,0,.514-.117.714.714,0,0,0,.159-.593,9.352,9.352,0,0,0-.451-2.468c-.058-.18-.146-.384-.33-.443a.651.651,0,0,0-.5.129,1.911,1.911,0,0,1-2,.171,2.39,2.39,0,0,0-.443-.33,1.065,1.065,0,0,0-.605-.008,19.944,19.944,0,0,0-5.011,1.629,2.154,2.154,0,0,0-.948.71.8.8,0,0,0,.138,1.073" transform="translate(-1122.194 -637.704)" fill="#38303b"/>
            </g>
            <g id="Group_4929" data-name="Group 4929">
              <g id="Group_4924" data-name="Group 4924" transform="translate(5.163 6.137)">
                <path id="Path_21127" data-name="Path 21127" d="M1128.011,443.456c-3.52-3.128-5.7-4.907-9.1-7.734-1.261-1.048-4.811-4.063-6.084-5.074-1.453-1.157-2.881-.15-.94,1.879,1.574,1.641,2.689,3.1,4.063,4.589,3.754,4.076,6.539,7.734,11.137,11.383" transform="translate(-1110.94 -430.16)" fill="#86514d"/>
              </g>
              <g id="Group_4928" data-name="Group 4928">
                <g id="Group_4925" data-name="Group 4925">
                  <path id="Path_21128" data-name="Path 21128" d="M1105.911,422.332a6.119,6.119,0,0,1-1.253-2.476,9.952,9.952,0,0,0-.869-1.641c-.518-.848-1.04-1.7-1.558-2.543-.054-.088-.129-.188-.217-.171-.121.021-.117.225-.084.367l.38,1.578c.008.029-.021.05-.042.029a13.965,13.965,0,0,0-2.564-2c-.2-.071-.25.125-.142.309l2.146,2.43c.025.029,0,.067-.033.046l-1.9-1.5a2.72,2.72,0,0,0-.777-.48.126.126,0,0,0-.15.167,1.543,1.543,0,0,0,.439.647,19.313,19.313,0,0,1,1.816,2,22.237,22.237,0,0,1-1.833-1.474.957.957,0,0,0-.53-.259c-.163,0-.209.163-.1.317a9.687,9.687,0,0,0,1.908,2.084c.029.021,0,.071-.025.05,0,0-1.591-1.386-1.75-1.1-.125.225.213.585.422.8a19.262,19.262,0,0,0,4.33,3.479,3.622,3.622,0,0,1,1.324,1.019" transform="translate(-1098.576 -415.464)" fill="#86514d"/>
                </g>
                <g id="Group_4927" data-name="Group 4927" transform="translate(4.339 3.294)">
                  <g id="Group_4926" data-name="Group 4926">
                    <path id="Path_21129" data-name="Path 21129" d="M1110.175,426.721a6.85,6.85,0,0,1-.91-3.228c-.021-.188-.317-.188-.3,0a7.193,7.193,0,0,0,.952,3.374c.109.159.363.013.255-.146Z" transform="translate(-1108.967 -423.352)" fill="#794642"/>
                  </g>
                </g>
              </g>
            </g>
            <path id="Path_21130" data-name="Path 21130" d="M1149.269,524.023h-.664l-4.573,19.025-2.43,18.173a.252.252,0,0,1-.246.221l-3.842.109a.326.326,0,0,1-.334-.338l.906-18.929,3.345-24.846,1.182-4.547,14.5.647.489,5.813-.706,23.944-1.186,18.065a.348.348,0,0,1-.363.326l-3.219-.109a.354.354,0,0,1-.338-.338l-.635-18.052Z" transform="translate(-1121.059 -472.206)" fill="#2e3c87"/>
            <g id="Group_4931" data-name="Group 4931" transform="translate(28.577 9.103)">
              <g id="Group_4930" data-name="Group 4930">
                <path id="Path_21131" data-name="Path 21131" d="M1168.713,437.793a.974.974,0,0,0-1.683-.084.145.145,0,0,0,.054.2.149.149,0,0,0,.2-.054.677.677,0,0,1,1.169.088c.092.167.347.021.259-.15Z" transform="translate(-1167.009 -437.265)" fill="#38303b"/>
              </g>
            </g>
            <g id="Group_4933" data-name="Group 4933" transform="translate(33.18 9.511)">
              <g id="Group_4932" data-name="Group 4932">
                <path id="Path_21132" data-name="Path 21132" d="M1178.278,438.8a.711.711,0,0,1,.635-.263.7.7,0,0,1,.531.409.155.155,0,0,0,.184.1.152.152,0,0,0,.1-.184,1,1,0,0,0-.735-.618.992.992,0,0,0-.923.338.154.154,0,0,0,0,.209.138.138,0,0,0,.2,0Z" transform="translate(-1178.032 -438.24)" fill="#38303b"/>
              </g>
            </g>
            <g id="Group_4935" data-name="Group 4935" transform="translate(34.071 48.401)" opacity="0.46">
              <g id="Group_4934" data-name="Group 4934">
                <path id="Path_21133" data-name="Path 21133" d="M1182.435,535a6.786,6.786,0,0,1-1.858-3.474c-.059-.263-.463-.15-.405.113a7.209,7.209,0,0,0,1.967,3.658c.2.188.493-.109.3-.3Z" transform="translate(-1180.166 -531.371)" fill="#f2e2c8"/>
              </g>
            </g>
            <g id="Group_4937" data-name="Group 4937" transform="translate(19.633 47.866)" opacity="0.46">
              <g id="Group_4936" data-name="Group 4936">
                <path id="Path_21134" data-name="Path 21134" d="M1148.138,530.232a6.5,6.5,0,0,1-2.447,3.445c-.23.142-.021.505.213.363a6.98,6.98,0,0,0,2.643-3.7c.092-.255-.317-.363-.409-.113Z" transform="translate(-1145.592 -530.09)" fill="#f2e2c8"/>
              </g>
            </g>
            <g id="Group_4939" data-name="Group 4939" transform="translate(16.205 87.432)" opacity="0.46">
              <g id="Group_4938" data-name="Group 4938">
                <path id="Path_21135" data-name="Path 21135" d="M1141.691,624.84c-1.37.05-2.735.013-4.1.021a.211.211,0,0,0,0,.422c1.37-.008,2.739.029,4.1-.017.271-.013.271-.434,0-.426Z" transform="translate(-1137.382 -624.84)" fill="#f2e2c8"/>
              </g>
            </g>
            <g id="Group_4941" data-name="Group 4941" transform="translate(30.653 87.649)" opacity="0.46">
              <g id="Group_4940" data-name="Group 4940">
                <path id="Path_21136" data-name="Path 21136" d="M1175.8,625.518c-1.207-.017-2.41-.092-3.616-.159-.271-.013-.271.4,0,.422,1.2.063,2.41.142,3.616.159a.211.211,0,0,0,0-.422Z" transform="translate(-1171.983 -625.359)" fill="#f2e2c8"/>
              </g>
            </g>
            <g id="Group_4942" data-name="Group 4942" transform="translate(18.006 17.551)">
              <path id="Path_21137" data-name="Path 21137" d="M1165.187,463.338c-2.18-1.67-3.875-2.873-7.216-3.207-1.7-.171-4.7-.906-6.99-1.165-.255-.029-5.642-1.591-5.867-1.466-.18.1-.48-.284-1.382.994a9.846,9.846,0,0,0-1.708,3.057c-.309,1.161-.626,1.649.2,2.468.843.839,2.735,1.9,3.24,3.011a3.616,3.616,0,0,1,.1,1.971q-1.2,8.594-2.405,17.192a1.559,1.559,0,0,0,.134,1.14,1.292,1.292,0,0,0,1.04.376q7.7.345,15.4.685a1.3,1.3,0,0,0,.952-.209,1.558,1.558,0,0,0,.346-1.123c.217-5.429,1-11.091,1.048-16.524.718-.793.343,1.278,1.3.873a25.875,25.875,0,0,0,3.487-4C1167.655,465.589,1165.35,463.463,1165.187,463.338Z" transform="translate(-1141.696 -457.493)" fill="#7da4ef"/>
            </g>
            <g id="Group_4954" data-name="Group 4954" transform="translate(26.364 2.681)">
              <path id="hair_1_" d="M1170.311,435.5a4.439,4.439,0,0,0,2.347-2.222,9.948,9.948,0,0,0,.852-3.119,1.712,1.712,0,0,0-.3-1.549,1.961,1.961,0,0,0-.789-.367,17.676,17.676,0,0,0-3.662-.7,8.482,8.482,0,0,0-4.351.455,1.111,1.111,0,0,0-.459.367,1.183,1.183,0,0,0-.121.564,9.2,9.2,0,0,0,.434,3.9,3.771,3.771,0,0,0,3.011,2.426" transform="translate(-1162.925 -425.135)" fill="#38303b"/>
              <g id="head_8_" transform="translate(0.476 3.06)">
                <g id="Group_4943" data-name="Group 4943" transform="translate(1.76 8.613)">
                  <path id="Path_21138" data-name="Path 21138" d="M1167.522,455.611a1,1,0,0,1-.439-1.036c.259-1.3.706-3.478.877-4.38a.354.354,0,0,1,.05-.15.325.325,0,0,1,.238-.1c.718-.05,1.432.159,2.146.084a4.21,4.21,0,0,1,1.741-.125.244.244,0,0,1,.15.1.351.351,0,0,1,.038.217c-.021.334-.05.668-.083,1-.084.864-.251,2.815-.359,4.009a.992.992,0,0,1-.61.831,3.819,3.819,0,0,1-1.9.288A4.608,4.608,0,0,1,1167.522,455.611Z" transform="translate(-1167.064 -449.84)" fill="#86514d"/>
                  <path id="Path_21139" data-name="Path 21139" d="M1173.117,450.013a.285.285,0,0,0-.15-.1,4.209,4.209,0,0,0-1.741.125c-.714.075-1.432-.129-2.146-.084a.3.3,0,0,0-.238.1.358.358,0,0,0-.05.15l-.3,1.591a4.146,4.146,0,0,0,1.9.827,3.061,3.061,0,0,0,2.635-.915c.017-.159.029-.317.046-.476.033-.334.067-.668.083-1A.344.344,0,0,0,1173.117,450.013Z" transform="translate(-1167.895 -449.846)" fill="#794642"/>
                </g>
                <g id="Group_4945" data-name="Group 4945">
                  <path id="Path_21140" data-name="Path 21140" d="M1173.05,434.732c-.263,3.149-2.76,5.508-4.794,5.337s-4.1-2.915-3.838-6.063,2.714-4.953,4.748-4.781S1173.317,431.584,1173.05,434.732Z" transform="translate(-1163.75 -429.213)" fill="#86514d"/>
                  <g id="Group_4944" data-name="Group 4944" transform="translate(0 3.878)">
                    <path id="Path_21141" data-name="Path 21141" d="M1184.31,442.309a1.384,1.384,0,0,0,1.127-1.036.991.991,0,0,0-.894-1.123" transform="translate(-1175.349 -439.461)" fill="#86514d"/>
                    <path id="Path_21142" data-name="Path 21142" d="M1163.789,440.676a1.389,1.389,0,0,1-.939-1.207.992.992,0,0,1,1.069-.96" transform="translate(-1162.85 -438.5)" fill="#86514d"/>
                  </g>
                </g>
              </g>
              <g id="Group_4946" data-name="Group 4946" transform="translate(2.175 5.22)">
                <path id="Path_21143" data-name="Path 21143" d="M1169.15,435.081c.029.038-.008.1-.054.109a.2.2,0,0,1-.129-.046,1.715,1.715,0,0,0-1.624-.129.546.546,0,0,1-.25.075.175.175,0,0,1-.171-.171.22.22,0,0,1,.042-.113.825.825,0,0,1,.38-.3,1.526,1.526,0,0,1,1.457.142.868.868,0,0,1,.363.459" transform="translate(-1166.92 -434.386)" fill="#38303b"/>
                <path id="Path_21144" data-name="Path 21144" d="M1177.661,435.8c-.038.033-.008.1.038.117a.214.214,0,0,0,.134-.025,1.709,1.709,0,0,1,1.62.142.588.588,0,0,0,.234.117.174.174,0,0,0,.2-.138.276.276,0,0,0-.021-.117.849.849,0,0,0-.326-.359,1.519,1.519,0,0,0-1.462-.1.863.863,0,0,0-.434.393" transform="translate(-1173.163 -434.916)" fill="#38303b"/>
              </g>
              <g id="Group_4947" data-name="Group 4947" transform="translate(1.771 8.605)">
                <path id="Path_21145" data-name="Path 21145" d="M1180.256,444.521a.954.954,0,1,1-.873-.985A.934.934,0,0,1,1180.256,444.521Z" transform="translate(-1173.175 -443.098)" fill="#794642"/>
                <path id="Path_21146" data-name="Path 21146" d="M1167.856,443.481a.954.954,0,1,1-.873-.986A.933.933,0,0,1,1167.856,443.481Z" transform="translate(-1165.953 -442.492)" fill="#794642"/>
              </g>
              <g id="Group_4949" data-name="Group 4949" transform="translate(2.765 6.616)">
                <path id="Path_21147" data-name="Path 21147" d="M1179.833,439.242c-.025.313-.192.551-.372.539s-.3-.28-.276-.593.192-.551.372-.539S1179.858,438.929,1179.833,439.242Z" transform="translate(-1174.651 -438.265)" fill="#38303b"/>
                <g id="Group_4948" data-name="Group 4948">
                  <path id="Path_21148" data-name="Path 21148" d="M1168.983,438.322c-.025.313-.192.551-.372.539s-.3-.28-.276-.593.192-.551.372-.539S1169.008,438.013,1168.983,438.322Z" transform="translate(-1168.332 -437.729)" fill="#38303b"/>
                </g>
              </g>
              <g id="Group_4950" data-name="Group 4950" transform="translate(3.073 10.943)">
                <path id="Path_21149" data-name="Path 21149" d="M1172.618,448.534a1.808,1.808,0,0,1-3.357-.334,3.177,3.177,0,0,0,3.374.271" transform="translate(-1169.181 -448.154)" fill="#e66e60"/>
                <path id="Path_21150" data-name="Path 21150" d="M1172.507,448.47a3.156,3.156,0,0,1-2.81.117,1.06,1.06,0,0,1-.626-.5,5.6,5.6,0,0,0,3.549.276Z" transform="translate(-1169.07 -448.09)" fill="#fff"/>
              </g>
              <g id="Group_4951" data-name="Group 4951">
                <path id="Path_21151" data-name="Path 21151" d="M1172.129,427.784a4.736,4.736,0,0,1-3.094-2.435,4.11,4.11,0,0,0,.326,1.474,17.005,17.005,0,0,0-7.283.142.334.334,0,0,1-.238,0c-.125-.063-.138-.246-.125-.4a5,5,0,0,1,1.236-3.178,4.475,4.475,0,0,1,1.491-.944,6.793,6.793,0,0,1,5.712.138,6.075,6.075,0,0,1,3.211,4.844" transform="translate(-1161.711 -421.885)" fill="#38303b"/>
              </g>
              <g id="Group_4953" data-name="Group 4953" transform="translate(4.632 6.503)">
                <g id="Group_4952" data-name="Group 4952">
                  <path id="Path_21152" data-name="Path 21152" d="M1173.436,437.609c-.155.731-.309,1.457-.464,2.188l-.113.539c-.029.142-.1.317-.021.455s.217.142.359.15c.18.008.359.021.539.029.267.017.267-.4,0-.418l-.455-.025c-.038,0-.075,0-.113,0-.108-.021-.092.025.05.134.021-.013.029-.146.038-.18.067-.309.13-.618.2-.931l.388-1.829c.054-.263-.351-.372-.405-.109Z" transform="translate(-1172.803 -437.458)" fill="#794642"/>
                </g>
              </g>
            </g>
          </g>
          <g id="Group_4956" data-name="Group 4956" transform="translate(45.781 44.534)">
            <path id="Path_21153" data-name="Path 21153" d="M1208.21,524.06a16.829,16.829,0,0,1,1.382,5.241,1.059,1.059,0,0,1,1.161-.217c.342.175.238.472.167.806a.686.686,0,0,1-.514.534,2,2,0,0,0,1.846.631,1.948,1.948,0,0,0,1.011-.309,1.224,1.224,0,0,0,.134-1.674,15.641,15.641,0,0,0-1.32-1.424,6.263,6.263,0,0,1-.768-1.207,25.373,25.373,0,0,1-1.424-4.33" transform="translate(-1208.21 -522.11)" fill="#86514d"/>
          </g>
          <g id="Group_4958" data-name="Group 4958" transform="translate(13.324 93.162)">
            <g id="Group_4957" data-name="Group 4957">
              <path id="Path_21154" data-name="Path 21154" d="M1130.586,638.953s.037.029.012.008,0,0,.008,0a.452.452,0,0,1,.046.042c.029.029.059.058.088.092a.089.089,0,0,0,.017.021c-.017-.013-.021-.029,0,0a.582.582,0,0,1,.037.054.706.706,0,0,1,.063.109l.025.05c0,.013.008.021.012.033s-.012-.038,0-.013c.013.042.029.079.042.121s.021.083.033.125l.012.063c0,.008,0,.017,0,.029.009.05,0-.05,0,0a.214.214,0,0,0,.063.146.221.221,0,0,0,.146.063.212.212,0,0,0,.209-.209,1.545,1.545,0,0,0-.6-1.1.21.21,0,0,0-.284.075.214.214,0,0,0,.075.288Z" transform="translate(-1130.483 -638.561)" fill="#f09532"/>
            </g>
          </g>
          <g id="Group_4960" data-name="Group 4960" transform="translate(14.733 92.721)">
            <g id="Group_4959" data-name="Group 4959">
              <path id="Path_21155" data-name="Path 21155" d="M1133.918,637.853c.038.038.075.079.113.121.017.021.033.038.05.058s.021.025.029.038.017.021,0,0a2.369,2.369,0,0,1,.18.271,2.631,2.631,0,0,1,.142.284c.012.034-.017-.046,0,.013l.012.038c.009.025.017.046.025.071a1.183,1.183,0,0,1,.05.163.213.213,0,0,0,.255.146.209.209,0,0,0,.146-.255,2.931,2.931,0,0,0-.722-1.24.21.21,0,0,0-.3,0,.217.217,0,0,0,.008.288Z" transform="translate(-1133.859 -637.504)" fill="#f09532"/>
            </g>
          </g>
        </g>
        <g id="Group_4962" data-name="Group 4962">
          <path id="Path_21156" data-name="Path 21156" d="M1118.387,352.54h-16.344a4.9,4.9,0,0,0-4.9,4.9v14.165a4.9,4.9,0,0,0,4.9,4.9h10.7l7.137,7.83a.406.406,0,0,0,.7-.359l-1.591-7.512a4.9,4.9,0,0,0,4.3-4.861V357.442A4.9,4.9,0,0,0,1118.387,352.54Z" transform="translate(-1097.14 -352.54)" fill="#fff" stroke="#777776" stroke-miterlimit="10" stroke-width="0.992"/>
          <path id="Path_21157" data-name="Path 21157" d="M1121.8,361.19a5.256,5.256,0,0,0-5.094,5.4c-.021,3,4.969,11.008,4.969,11.008s5.115-7.93,5.136-10.932A5.251,5.251,0,0,0,1121.8,361.19Zm-.058,7.959a2.767,2.767,0,1,1,2.739-2.748A2.745,2.745,0,0,1,1121.746,369.149Z" transform="translate(-1108.538 -357.578)" fill="#d0e0fb"/>
        </g>
      </g>
      <g id="Group_10272" data-name="Group 10272" transform="translate(12.36 42.486)">
        <g id="Group_4994" data-name="Group 4994" transform="translate(0 25.693)">
          <g id="Group_4964" data-name="Group 4964" transform="translate(11.811)">
            <path id="Path_21158" data-name="Path 21158" d="M874.034,433.116c-.985-2.276-3.967-3.483-6.393-2.957a7.8,7.8,0,0,0-5.282,4.827c-.806,1.984-.973,4.172-1.645,6.209a13.148,13.148,0,0,1-2.739,4.7,26.44,26.44,0,0,0-3.357,3.7,6.582,6.582,0,0,0,4.668,9.947c2.247.326,4.6-.514,6.786.1a27.762,27.762,0,0,0,3.257,1.157,4.841,4.841,0,0,0,4.794-2.869,8.88,8.88,0,0,0,.326-5.859c-.505-2.1-1.449-4.122-1.537-6.281-.1-2.393.48-3.971.693-6.356C873.792,437.329,875.425,436.323,874.034,433.116Z" transform="translate(-853.668 -430.037)" fill="#38303b"/>
          </g>
          <g id="Group_4972" data-name="Group 4972" transform="translate(0 33.434)">
            <g id="Group_4966" data-name="Group 4966" transform="translate(32.107 50.279)">
              <path id="Path_21159" data-name="Path 21159" d="M906.574,634.208c-.058-.818-.117-1.633-.175-2.451a1.478,1.478,0,0,0-.276-.91c-.388-.434-1.132-.367-1.741-.259a.994.994,0,0,0-.6.246.789.789,0,0,0-.058.731c.28,1.1.555,2.2.835,3.307" transform="translate(-903.083 -630.506)" fill="#f7b094"/>
              <g id="Group_4965" data-name="Group 4965" transform="translate(0 3.234)">
                <path id="Path_21160" data-name="Path 21160" d="M911.757,641.8l-4.23.058c-.459.008-4.1-.129-4.619-.134a.72.72,0,0,1-.493-.125.7.7,0,0,1-.142-.572,8.931,8.931,0,0,1,.489-2.355c.063-.171.15-.363.326-.413a.645.645,0,0,1,.472.134,1.311,1.311,0,0,0,1.332.209c.175-.033.852-.238,1.015-.3a1.054,1.054,0,0,1,.58,0,19.3,19.3,0,0,1,4.765,1.675,2.059,2.059,0,0,1,.889.7.766.766,0,0,1-.154,1.023" transform="translate(-902.269 -638.252)" fill="#38303b"/>
              </g>
            </g>
            <g id="Group_4968" data-name="Group 4968" transform="translate(0 46.318)">
              <path id="Path_21161" data-name="Path 21161" d="M831.93,622.766l2.017-1.4a1.363,1.363,0,0,1,.9-.338c.605.063,1.069.747,1.407,1.345a1.2,1.2,0,0,1,.221.676c-.033.276-.292.413-.526.514l-3.136,1.378" transform="translate(-829.196 -621.021)" fill="#f7b094"/>
              <g id="Group_4967" data-name="Group 4967" transform="translate(0 1.016)">
                <path id="Path_21162" data-name="Path 21162" d="M829.616,632.878c-.727-1.311-1.315-2.388-2.042-3.7-.221-.4-1.812-3.675-2.059-4.138a.734.734,0,0,1-.121-.493c.05-.2.255-.309.438-.393a8.9,8.9,0,0,1,2.309-.677.574.574,0,0,1,.518.092.629.629,0,0,1,.1.48,1.32,1.32,0,0,0,.443,1.274c.113.138.61.639.743.752a1.051,1.051,0,0,1,.267.514,19.24,19.24,0,0,1,.764,4.99,2.021,2.021,0,0,1-.2,1.115.768.768,0,0,1-.977.347" transform="translate(-825.383 -623.454)" fill="#38303b"/>
              </g>
            </g>
            <g id="Group_4971" data-name="Group 4971" transform="translate(4.815)">
              <g id="Group_4969" data-name="Group 4969" transform="translate(18.018)">
                <path id="Path_21163" data-name="Path 21163" d="M880.832,524.846c2.573,11.621,4.865,23.823,8.414,35.144.284.9.685,2.447,1.115,2.505a5.1,5.1,0,0,0,1.675-.088.9.9,0,0,0,.748-.973c-1.612-17.138-1.161-34.392-4.974-51.121-.134-.593-7.75.246-7.75.246" transform="translate(-880.06 -510.102)" fill="#2e3c87"/>
              </g>
              <g id="Group_4970" data-name="Group 4970" transform="translate(0 2.12)">
                <path id="Path_21164" data-name="Path 21164" d="M837.621,562.025a.517.517,0,0,0,.718.3,29.779,29.779,0,0,0,10.7-9.914,66.446,66.446,0,0,0,9.609-19.084c1.892-5.85,3.491-11.989,2.969-18.148a78.6,78.6,0,0,0-8.381.956,1.447,1.447,0,0,0-1.107.576,5.144,5.144,0,0,0-.71,2.1c-1.2,6.6-1.42,13.054-2.839,19.6-1.72,7.917-5.424,16.177-11.471,21.042a.517.517,0,0,0-.167.572Z" transform="translate(-836.913 -515.18)" fill="#415299"/>
              </g>
            </g>
          </g>
          <g id="Group_4973" data-name="Group 4973" transform="translate(17.842 41.797)">
            <path id="Path_21165" data-name="Path 21165" d="M868.11,530.355l.3,1.449a1.356,1.356,0,0,0,1.361.952q6.2.119,12.39.1a1.588,1.588,0,0,0,.939-.2.99.99,0,0,0,.317-.618c.146-.635.292-1.274.438-1.908" transform="translate(-868.11 -530.13)" fill="#2f7825"/>
          </g>
          <g id="Group_4976" data-name="Group 4976" transform="translate(28.182 17.44)">
            <g id="Group_4974" data-name="Group 4974" transform="translate(9.037 22.165)">
              <path id="Path_21166" data-name="Path 21166" d="M914.51,525.669a36.348,36.348,0,0,1,2.263,4.8,10.062,10.062,0,0,0,.768,2.677c.088.159.4.1.468-.083a3.169,3.169,0,0,0,.184-1.011.279.279,0,0,1,.455-.15,1.208,1.208,0,0,1,.234.372c.338.8.727,1.391,1.065,2.192a5.44,5.44,0,0,0,.593,1.148c.109.138.234.008.238-.163,0-.15-.113-.718-.079-.651.079.146.38.1.376-.167a9.93,9.93,0,0,0-.752-3.361c-.848-1.9-3.14-4.385-3.959-6.389" transform="translate(-914.51 -524.88)" fill="#f7b094"/>
            </g>
            <g id="Group_4975" data-name="Group 4975">
              <path id="Path_21167" data-name="Path 21167" d="M892.87,478.841a53.048,53.048,0,0,0,8.707,16.344c.426.551.731,1,1.3.969.793-.046,2.109-.468,1.746-1.311-1.721-3.988-4.134-8.6-4.619-12.5a47.225,47.225,0,0,0-.739-5.291,10.736,10.736,0,0,0-2.631-5.253" transform="translate(-892.87 -471.8)" fill="#74b960"/>
            </g>
          </g>
          <g id="Group_4977" data-name="Group 4977" transform="translate(17.584 15.418)">
            <path id="Path_21168" data-name="Path 21168" d="M869.216,495.013a1.928,1.928,0,0,1-1.712-1.754c-.129-.885.881-2.785.747-3.708-.188-1.307-1.395-12.908,1.219-19.213a5.122,5.122,0,0,1,3.094-3.261,8.331,8.331,0,0,1,2.455-.05c1.712.079,3.524-.175,5.057.589,2.61,1.307,3.061,4.777,3.178,7.7q.144,3.652.292,7.3c.121,3.032,1.153,5.817.217,8.247-.276.714.685,2.781.188,3.366-.555.647-2.025.4-2.877.426q-5.287.138-10.577.28" transform="translate(-867.492 -466.959)" fill="#f2e2c8"/>
          </g>
          <g id="Group_4983" data-name="Group 4983" transform="translate(17.596 15.544)">
            <path id="Path_21169" data-name="Path 21169" d="M907.557,475.423l-.3-.3a.212.212,0,0,1,0-.3l5.065-5.065a.212.212,0,0,1,.3,0l.3.3a.212.212,0,0,1,0,.3l-5.065,5.065A.212.212,0,0,1,907.557,475.423Z" transform="translate(-890.625 -468.675)" fill="#38303b"/>
            <g id="Group_4978" data-name="Group 4978">
              <path id="Path_21170" data-name="Path 21170" d="M875.8,487.149c-.781.643-2.831,1.7-3.671,2.263-.626.426-1.708-.025-2.589-1.006a8.377,8.377,0,0,1-1.328-2.906,25.586,25.586,0,0,1-.685-5.951,41.042,41.042,0,0,1,.551-6.986c.28-1.933,1.708-4.527,3.119-5.049,2.034-.748,2.906.109,3.149,3.107.171,2.151-.342,3.963-.727,7.6-.175,1.641-.388,4.585-.388,4.585Z" transform="translate(-867.522 -467.26)" fill="#74b960"/>
            </g>
            <g id="Group_4979" data-name="Group 4979" transform="translate(11.909 3.711)">
              <path id="Path_21171" data-name="Path 21171" d="M896.04,483.36a37.323,37.323,0,0,0,3.453-4.017,10.313,10.313,0,0,1,1.466-2.368c.129-.129.405.008.413.2a3.267,3.267,0,0,1-.109,1.015c-.05.184.622.393.793.292.125-.075,2.268-2.23,2.318-2.284.117-.121.384,0,.3.255a10.452,10.452,0,0,1-1.641,3.032c-1.324,1.6-4.159,3.4-5.483,5.111" transform="translate(-896.04 -476.147)" fill="#f7b094"/>
            </g>
            <g id="Group_4980" data-name="Group 4980" transform="translate(4.53 9.293)">
              <path id="Path_21172" data-name="Path 21172" d="M878.37,502.324a9.821,9.821,0,0,0,4.084-2.589c1.474-1.7,6.159-7.208,6.289-8.135.054-.393-1.211-1.545-1.7-2.063-.3-.309-2.79,2.526-4.109,3.637-.409.347-2.8,2.159-3.938,2.923" transform="translate(-878.37 -489.514)" fill="#74b960"/>
            </g>
            <g id="Group_4982" data-name="Group 4982" transform="translate(3.632 9.371)">
              <g id="Group_4981" data-name="Group 4981">
                <path id="Path_21173" data-name="Path 21173" d="M876.77,496.335c2.18-.363,4.481-2.034,8.832-6.514a.388.388,0,0,1,.56,0l1.624,1.67" transform="translate(-876.54 -489.7)" fill="none" stroke="#2e3c87" stroke-miterlimit="10" stroke-width="0.283"/>
                <path id="Path_21174" data-name="Path 21174" d="M878.011,503.4a4.571,4.571,0,0,0-1.791-.681" transform="translate(-876.22 -497.283)" fill="none" stroke="#2e3c87" stroke-miterlimit="10" stroke-width="0.283"/>
              </g>
            </g>
          </g>
          <g id="Group_4989" data-name="Group 4989" transform="translate(23.314 2.894)">
            <g id="Group_4985" data-name="Group 4985" transform="translate(1.301 7.013)">
              <path id="Path_21175" data-name="Path 21175" d="M884.363,458.746c.309-1.19.764-2.944.977-3.75.088-.33.175-.66.276-.99a.433.433,0,0,1,.1-.2.211.211,0,0,1,.146-.046c.488-.008.86.409,1.286.643.518.288,1.136.3,1.662.568a.231.231,0,0,1,.146.163.415.415,0,0,1-.013.159c-.184.969-.384,3.629-.509,4.861-.067.689-1.307,1.061-2.543.689A1.86,1.86,0,0,1,884.363,458.746Z" transform="translate(-884.33 -453.76)" fill="#f7b094"/>
              <g id="Group_4984" data-name="Group 4984" transform="translate(0.881)">
                <path id="Path_21176" data-name="Path 21176" d="M886.945,453.806a.211.211,0,0,1,.146-.046c.489-.008.86.409,1.286.643.518.288,1.136.3,1.662.568a.231.231,0,0,1,.146.163.416.416,0,0,1-.013.159c-.1.543-.2,1.082-.309,1.624a2.926,2.926,0,0,1-1.729.225,2.309,2.309,0,0,1-1.7-1.675c.042-.159.083-.313.125-.472.088-.33.175-.66.276-.99A.483.483,0,0,1,886.945,453.806Z" transform="translate(-886.44 -453.76)" fill="#e89c82"/>
              </g>
            </g>
            <g id="Group_4986" data-name="Group 4986" transform="translate(0 3.989)">
              <path id="Path_21177" data-name="Path 21177" d="M882.7,448.733a1.685,1.685,0,0,1-1.474-1.044c-.113-.535.438-1.144,1.165-1.169" transform="translate(-881.215 -446.52)" fill="#f7b094"/>
            </g>
            <g id="Group_4987" data-name="Group 4987" transform="translate(1.138)">
              <path id="Path_21178" data-name="Path 21178" d="M884.224,443.219c.743,2.673,2.631,3.015,4.61,3.65a3.793,3.793,0,0,0,1.3.121c.91-.1,1.324-.969,1.5-1.7a16.2,16.2,0,0,0,.464-3.9,5.565,5.565,0,0,0-.53-2.652,3.373,3.373,0,0,0-2.389-1.725,4.869,4.869,0,0,0-5.049,5.888" transform="translate(-883.94 -436.967)" fill="#f7b094"/>
            </g>
            <g id="Group_4988" data-name="Group 4988" transform="translate(8.972 4.374)">
              <path id="Path_21179" data-name="Path 21179" d="M903.026,447.44a3.843,3.843,0,0,0,.113,1.165,1.158,1.158,0,0,0,.392.647.448.448,0,0,1,.079.676.622.622,0,0,1-.367.175.523.523,0,0,1-.543-.2" transform="translate(-902.7 -447.44)" fill="#f7b094"/>
            </g>
          </g>
          <g id="Group_4990" data-name="Group 4990" transform="translate(22.799 2.349)">
            <path id="Path_21180" data-name="Path 21180" d="M879.98,440.435a15.284,15.284,0,0,0,5.529-1.758,7.1,7.1,0,0,0,2.088-1.453c.292-.33.509-.781.246-1.14-.288-.393-.96-.443-1.52-.413-.405.021-.806.067-1.2.125a6.421,6.421,0,0,0-1.9.551,6.949,6.949,0,0,0-1.658,1.282,3,3,0,0,0-1.09,1.658" transform="translate(-879.98 -435.663)" fill="#38303b"/>
          </g>
          <g id="Group_4993" data-name="Group 4993" transform="translate(27.634 5.411)">
            <g id="Group_4991" data-name="Group 4991" transform="translate(2.085)">
              <path id="Path_21181" data-name="Path 21181" d="M896.565,443.4c-.029.021,0,.059.046.063a.232.232,0,0,0,.117-.029,2.461,2.461,0,0,1,1.482-.088.672.672,0,0,0,.226.038c.079,0,.163-.042.163-.1a.115.115,0,0,0-.033-.063.734.734,0,0,0-.338-.163,2.152,2.152,0,0,0-1.328.092.676.676,0,0,0-.342.259" transform="translate(-896.554 -442.995)" fill="#38303b"/>
            </g>
            <g id="Group_4992" data-name="Group 4992" transform="translate(0 2.544)" opacity="0.54">
              <path id="Path_21182" data-name="Path 21182" d="M891.56,450.133a1.172,1.172,0,0,0,1.169,1.14,1.118,1.118,0,0,0,1.215-1.044,1.172,1.172,0,0,0-1.169-1.14A1.116,1.116,0,0,0,891.56,450.133Z" transform="translate(-891.559 -449.088)" fill="#ed825d"/>
            </g>
            <path id="Path_21183" data-name="Path 21183" d="M898.8,446.343c.017.322.188.576.38.568s.33-.271.313-.593-.188-.576-.38-.568S898.776,446.025,898.8,446.343Z" transform="translate(-895.774 -444.599)" fill="#38303b"/>
          </g>
        </g>
        <g id="Group_4995" data-name="Group 4995" transform="translate(33.948)">
          <path id="Path_21184" data-name="Path 21184" d="M911.578,368.51h16.344a4.9,4.9,0,0,1,4.9,4.9v14.165a4.9,4.9,0,0,1-4.9,4.9h-10.7l-7.137,7.83a.406.406,0,0,1-.7-.359l1.591-7.512a4.9,4.9,0,0,1-4.3-4.861V373.412A4.9,4.9,0,0,1,911.578,368.51Z" transform="translate(-906.68 -368.51)" fill="#fff" stroke="#777776" stroke-miterlimit="10" stroke-width="0.992"/>
          <path id="Path_21185" data-name="Path 21185" d="M925.25,382.374c.021,3,5.136,10.932,5.136,10.932s4.994-8.005,4.969-11.008a5.067,5.067,0,1,0-10.106.075Zm2.334-.259a2.719,2.719,0,1,1,2.739,2.748A2.737,2.737,0,0,1,927.584,382.116Z" transform="translate(-917.495 -373.396)" fill="#7da4ef"/>
        </g>
      </g>
    </g>
  </g>
</svg>
