<svg xmlns="http://www.w3.org/2000/svg" width="11.882" height="15.277" viewBox="0 0 11.882 15.277">
  <path id="charge-svgrepo-com" d="M13.149,14.141l-.346.077v.465a1.832,1.832,0,0,1-1.188,1.729v1.253a.594.594,0,1,1-1.188,0V16.413a1.831,1.831,0,0,1-1.188-1.729v-.431l-.155-.033-.351-.078a4.675,4.675,0,0,1-3.495-3.47,8.181,8.181,0,0,1,0-3.918,4.675,4.675,0,0,1,3.495-3.47L9.084,3.2a8.533,8.533,0,0,1,3.715,0l.351.078a4.675,4.675,0,0,1,3.495,3.47,8.181,8.181,0,0,1,0,3.918A4.675,4.675,0,0,1,13.149,14.141Zm-1.534.256-.207.014a8.526,8.526,0,0,1-.981,0v.275a.594.594,0,1,0,1.188,0Zm.02-8.113a.5.5,0,0,1,.074.687l-.967,1.243H12.13a.474.474,0,0,1,.428.277.5.5,0,0,1-.057.517l-1.584,2.037a.467.467,0,0,1-.668.076.5.5,0,0,1-.074-.687l.967-1.243H9.753a.474.474,0,0,1-.428-.277A.5.5,0,0,1,9.382,8.4l1.584-2.037A.466.466,0,0,1,11.635,6.285Z" transform="translate(-5 -3)" fill="#212226" fill-rule="evenodd"/>
</svg>
