<svg xmlns="http://www.w3.org/2000/svg" width="8.951" height="14.122" viewBox="0 0 8.951 14.122">
  <path id="path11774" d="M3.441,0,2.5,5.178c-.138.758,1.677,1.112,1.648,1.883L3.912,13.18a.906.906,0,0,0,.941.941.906.906,0,0,0,.941-.941L5.559,7.061c-.03-.77,1.632-1.112,1.648-1.883L6.265,0H5.795L6.03,3.766l-.706.471L5.089,0H4.618L4.382,4.237l-.706-.471L3.912,0Zm8,0A3.016,3.016,0,0,0,9.132,1.541a8.288,8.288,0,0,0-.513,3.166V7.061c0,.77,1.027.941,1.412.941L9.56,13.18c-.085.938.941.941.941.941a.922.922,0,0,0,.941-.941Z" transform="translate(-2.492)" fill="#7da4ef"/>
</svg>
