<svg xmlns="http://www.w3.org/2000/svg" width="16.89" height="16.799" viewBox="0 0 16.89 16.799">
  <g id="Iconly_Bulk_Send" data-name="Iconly/Bulk/Send" transform="translate(-0.013 0.001)">
    <g id="Send" transform="translate(0.013 -0.001)">
      <path id="Fill_1" data-name="Fill 1" d="M16.427.488A1.638,1.638,0,0,0,14.795.066L1.192,4A1.618,1.618,0,0,0,.022,5.274,1.89,1.89,0,0,0,.868,7.041l4.255,2.6a1.106,1.106,0,0,0,1.36-.161l4.871-4.871a.621.621,0,0,1,.9,0,.637.637,0,0,1,0,.9L7.371,10.373a1.108,1.108,0,0,0-.163,1.36L9.807,16a1.691,1.691,0,0,0,1.615.785A1.644,1.644,0,0,0,12.8,15.621l4.033-13.5A1.643,1.643,0,0,0,16.427.488" transform="translate(-0.013 0.001)" fill="#fff"/>
      <path id="Combined_Shape" data-name="Combined Shape" d="M4.029,6.447a.634.634,0,0,1,0-.9L5.183,4.4a.634.634,0,1,1,.9.9L4.925,6.447a.634.634,0,0,1-.9,0Zm-.663-3.2a.634.634,0,0,1,0-.9L4.52,1.193a.634.634,0,0,1,.9.9L4.262,3.245a.634.634,0,0,1-.9,0ZM.186,2.236a.634.634,0,0,1,0-.9L1.34.185a.634.634,0,0,1,.9.9L1.082,2.236a.634.634,0,0,1-.9,0Z" transform="translate(0.209 10.098)" fill="#fff" opacity="0.4"/>
    </g>
  </g>
</svg>
