<svg id="Iconly_Bulk_Tick_Square" data-name="Iconly/Bulk/Tick Square" xmlns="http://www.w3.org/2000/svg" width="55.096" height="55.096" viewBox="0 0 55.096 55.096">
  <g id="Tick_Square" data-name="Tick Square">
    <path id="Fill_1" data-name="Fill 1" d="M39.5,0H15.62C6.281,0,0,6.556,0,16.308V38.815C0,48.54,6.281,55.1,15.62,55.1H39.5C48.843,55.1,55.1,48.54,55.1,38.815V16.308C55.1,6.556,48.843,0,39.5,0" fill="#74b960" opacity="0.4"/>
    <path id="Fill_4" data-name="Fill 4" d="M8.95,17.876a2.4,2.4,0,0,1-1.705-.705L.708,10.625a2.411,2.411,0,1,1,3.4-3.413L8.95,12.049,20.322.677a2.41,2.41,0,0,1,3.4,3.41L10.656,17.159a2.4,2.4,0,0,1-1.705.705" transform="translate(15.33 18.631)" fill="#74b960"/>
  </g>
</svg>
