<svg xmlns="http://www.w3.org/2000/svg" xmlns:xlink="http://www.w3.org/1999/xlink" width="167.716" height="170.24" viewBox="0 0 167.716 170.24">
  <defs>
    <radialGradient id="radial-gradient" cx="0.451" cy="0.419" r="1.42" gradientTransform="translate(0.169) scale(0.662 1)" gradientUnits="objectBoundingBox">
      <stop offset="0" stop-color="#711f56"/>
      <stop offset="0.161" stop-color="#6b1d51"/>
      <stop offset="0.363" stop-color="#5c1946"/>
      <stop offset="0.585" stop-color="#421232"/>
      <stop offset="0.821" stop-color="#1f0818"/>
      <stop offset="1"/>
    </radialGradient>
    <linearGradient id="linear-gradient" x1="1.01" y1="0.5" x2="-0.006" y2="0.5" gradientUnits="objectBoundingBox">
      <stop offset="0.016" stop-color="#f5ab45"/>
      <stop offset="1" stop-color="#f5c745"/>
    </linearGradient>
    <linearGradient id="linear-gradient-2" x1="0.589" y1="-0.245" x2="0.466" y2="0.784" gradientUnits="objectBoundingBox">
      <stop offset="0.035" stop-color="#ff9e6e"/>
      <stop offset="0.304" stop-color="#ffad72"/>
      <stop offset="0.821" stop-color="#ffd580"/>
      <stop offset="1" stop-color="#ffe585"/>
    </linearGradient>
    <linearGradient id="linear-gradient-3" x1="1.371" y1="0.811" x2="-0.525" y2="0.005" gradientUnits="objectBoundingBox">
      <stop offset="0" stop-color="#afb6e5"/>
      <stop offset="0.606" stop-color="#ced3f4"/>
      <stop offset="1" stop-color="#e5e9ff"/>
    </linearGradient>
    <radialGradient id="radial-gradient-2" cx="-0.18" cy="1.058" r="0.857" gradientTransform="translate(-0.158) scale(1.315 1)" gradientUnits="objectBoundingBox">
      <stop offset="0" stop-color="#ff5f98"/>
      <stop offset="0.015" stop-color="#f65c93"/>
      <stop offset="0.132" stop-color="#bd4671"/>
      <stop offset="0.252" stop-color="#8b3352"/>
      <stop offset="0.373" stop-color="#602339"/>
      <stop offset="0.494" stop-color="#3d1624"/>
      <stop offset="0.617" stop-color="#220c14"/>
      <stop offset="0.741" stop-color="#0f0509"/>
      <stop offset="0.867" stop-color="#030102"/>
      <stop offset="1"/>
    </radialGradient>
    <radialGradient id="radial-gradient-3" cx="-0.549" cy="1.1" r="0.945" gradientTransform="translate(-2.391) scale(5.783 1)" xlink:href="#radial-gradient-2"/>
    <linearGradient id="linear-gradient-4" x1="0.621" y1="0.52" x2="-1.719" y2="0.119" xlink:href="#linear-gradient-3"/>
    <linearGradient id="linear-gradient-5" x1="0.971" y1="0.563" x2="-1.189" y2="0.242" xlink:href="#linear-gradient-3"/>
    <linearGradient id="linear-gradient-6" x1="1.285" y1="0.628" x2="-0.961" y2="0.261" gradientUnits="objectBoundingBox">
      <stop offset="0" stop-color="#ffe4a7"/>
      <stop offset="1"/>
    </linearGradient>
    <linearGradient id="linear-gradient-7" x1="1.755" y1="0.771" x2="-1.351" y2="0.119" xlink:href="#linear-gradient-6"/>
    <radialGradient id="radial-gradient-4" cx="-0.18" cy="1.058" r="0.952" gradientTransform="translate(-0.092) scale(1.184 1)" xlink:href="#radial-gradient-2"/>
    <linearGradient id="linear-gradient-8" x1="1.14" y1="0.621" x2="-0.755" y2="0.263" xlink:href="#linear-gradient-6"/>
    <linearGradient id="linear-gradient-9" x1="1.696" y1="0.779" x2="-1.268" y2="0.109" xlink:href="#linear-gradient-6"/>
    <linearGradient id="linear-gradient-10" x1="0.335" y1="0.172" x2="0.484" y2="0.59" xlink:href="#linear-gradient-6"/>
    <linearGradient id="linear-gradient-11" x1="1.042" y1="0.36" x2="-1.091" y2="1.043" xlink:href="#linear-gradient-6"/>
    <linearGradient id="linear-gradient-12" x1="0.277" y1="0.154" x2="0.808" y2="0.978" xlink:href="#linear-gradient"/>
    <linearGradient id="linear-gradient-13" x1="-0.05" y1="-0.699" x2="1.41" y2="2.486" xlink:href="#linear-gradient"/>
    <linearGradient id="linear-gradient-14" x1="1.256" y1="-1.462" x2="-1" y2="3.512" xlink:href="#linear-gradient"/>
  </defs>
  <g id="Group_10282" data-name="Group 10282" transform="translate(-133.197 -110.577)">
    <g id="Group_2050" data-name="Group 2050" transform="translate(133.197 110.577)">
      <g id="Group_2023" data-name="Group 2023" transform="translate(1.864 0)">
        <g id="Group_2021" data-name="Group 2021">
          <g id="Group_2020" data-name="Group 2020" transform="translate(1.668)" opacity="0.5" style="mix-blend-mode: multiply;isolation: isolate">
            <path id="Path_14008" data-name="Path 14008" d="M431.085,172.7c-7.521-4.342-13.619-.866-13.619,7.765v13.649c0,8.631,6.1,19.148,13.619,23.491L537.7,279.862c7.522,4.342,16.634.39,16.634-8.242V257.972c0-8.631-9.112-18.672-16.634-23.014Z" transform="translate(-413.75 -170.833)" fill="#d8d7d7" opacity="0"/>
            <path id="Path_14009" data-name="Path 14009" d="M430.693,173.289c-7.485-4.322-13.552-.862-13.552,7.727v12.691c0,8.588,6.067,19.055,13.552,23.376l106.164,62c7.485,4.322,16.293.428,16.293-8.16V258.229c0-8.589-8.808-18.622-16.293-22.944Z" transform="translate(-413.762 -170.811)" fill="#d8d7d7" opacity="0.091"/>
            <path id="Path_14010" data-name="Path 14010" d="M430.3,173.875c-7.449-4.3-13.486-.858-13.486,7.689V193.3c0,8.547,6.037,18.962,13.486,23.262L536.018,278.3c7.448,4.3,15.952.467,15.952-8.08V258.484c0-8.547-8.5-18.57-15.952-22.871Z" transform="translate(-413.774 -170.79)" fill="#d8d7d7" opacity="0.182"/>
            <path id="Path_14011" data-name="Path 14011" d="M429.908,174.46c-7.411-4.279-13.42-.854-13.42,7.651v10.778c0,8.505,6.008,18.869,13.42,23.148l105.27,61.48c7.411,4.279,15.612.507,15.612-8V258.74c0-8.5-8.2-18.521-15.612-22.8Z" transform="translate(-413.786 -170.768)" fill="#d8d7d7" opacity="0.273"/>
            <path id="Path_14012" data-name="Path 14012" d="M429.515,175.045c-7.375-4.257-13.353-.849-13.353,7.613v9.821c0,8.463,5.978,18.774,13.353,23.033l104.823,61.222c7.375,4.257,15.271.545,15.271-7.917V259c0-8.463-7.9-18.471-15.271-22.729Z" transform="translate(-413.798 -170.747)" fill="#d8d7d7" opacity="0.364"/>
            <path id="Path_14013" data-name="Path 14013" d="M429.123,175.631c-7.339-4.237-13.287-.844-13.287,7.576v8.864c0,8.421,5.948,18.681,13.287,22.918L533.5,275.952c7.339,4.238,14.932.585,14.932-7.835v-8.864c0-8.42-7.593-18.421-14.932-22.658Z" transform="translate(-413.809 -170.725)" fill="#d8d7d7" opacity="0.455"/>
            <path id="Path_14014" data-name="Path 14014" d="M428.731,176.216c-7.3-4.216-13.221-.841-13.221,7.538v7.907c0,8.379,5.918,18.588,13.221,22.8l103.929,60.7c7.3,4.216,14.591.625,14.591-7.754v-7.907c0-8.379-7.289-18.371-14.591-22.587Z" transform="translate(-413.821 -170.704)" fill="#d8d7d7" opacity="0.545"/>
            <path id="Path_14015" data-name="Path 14015" d="M428.338,176.8c-7.264-4.2-13.154-.837-13.154,7.5v6.95c0,8.337,5.889,18.495,13.154,22.689L531.82,274.388c7.265,4.2,14.25.663,14.25-7.672v-6.95c0-8.337-6.984-18.322-14.25-22.516Z" transform="translate(-413.833 -170.683)" fill="#d8d7d7" opacity="0.636"/>
            <path id="Path_14016" data-name="Path 14016" d="M427.945,177.387c-7.228-4.172-13.087-.832-13.087,7.462v5.994c0,8.294,5.859,18.4,13.087,22.574L530.98,273.606c7.228,4.174,13.91.7,13.91-7.592V260.02c0-8.294-6.682-18.271-13.91-22.444Z" transform="translate(-413.845 -170.661)" fill="#d8d7d7" opacity="0.727"/>
            <path id="Path_14017" data-name="Path 14017" d="M427.553,177.972c-7.192-4.152-13.021-.828-13.021,7.424v5.037c0,8.253,5.829,18.308,13.021,22.46L530.14,272.824c7.192,4.152,13.57.742,13.57-7.511v-5.037c0-8.252-6.378-18.221-13.57-22.373Z" transform="translate(-413.856 -170.64)" fill="#d8d7d7" opacity="0.818"/>
            <path id="Path_14018" data-name="Path 14018" d="M427.161,178.558c-7.154-4.131-12.955-.824-12.955,7.386v4.079c0,8.21,5.8,18.215,12.955,22.345L529.3,272.042c7.154,4.131,13.228.781,13.228-7.43v-4.079c0-8.21-6.074-18.17-13.228-22.3Z" transform="translate(-413.868 -170.618)" fill="#d8d7d7" opacity="0.909"/>
            <path id="Path_14019" data-name="Path 14019" d="M426.768,179.144c-7.118-4.11-12.888-.82-12.888,7.348v3.123c0,8.168,5.77,18.121,12.888,22.231L528.461,271.26c7.118,4.109,12.888.82,12.888-7.348v-3.123c0-8.168-5.77-18.121-12.888-22.231Z" transform="translate(-413.88 -170.597)" fill="#d8d7d7"/>
          </g>
          <path id="Path_14020" data-name="Path 14020" d="M537.153,279.064l-113.7-66.107c-6.152-3.553-11.186-13.171-11.186-21.375v-5.826c0-8.2,5.033-12.009,11.186-8.457l113.7,66.108c6.152,3.552,11.186,13.17,11.186,21.374v5.826C548.339,278.811,543.306,282.616,537.153,279.064Z" transform="translate(-412.27 -170.647)" fill="#7da4ef" opacity="0.95"/>
          <path id="Path_14021" data-name="Path 14021" d="M537.153,243.407,423.456,177.3c-6.152-3.552-11.186.254-11.186,8.457v1.256c0-8.2,5.033-12.009,11.186-8.457l113.7,66.108c6.152,3.552,11.186,13.17,11.186,21.374v-1.256C548.339,256.577,543.306,246.959,537.153,243.407Z" transform="translate(-412.27 -170.647)" fill="url(#radial-gradient)" style="mix-blend-mode: color-dodge;isolation: isolate"/>
        </g>
        <g id="Group_2022" data-name="Group 2022" transform="translate(24.086 29.728)">
          <path id="Path_14022" data-name="Path 14022" d="M445.423,208.749c0,3.139-2.217,4.4-4.954,2.824a10.915,10.915,0,0,1-4.954-8.544c0-3.139,2.218-4.4,4.954-2.824A10.912,10.912,0,0,1,445.423,208.749Z" transform="translate(-435.516 -199.524)" fill="#fff"/>
          <path id="Path_14023" data-name="Path 14023" d="M460.433,217.415c0,3.139-2.217,4.4-4.954,2.824a10.912,10.912,0,0,1-4.954-8.544c0-3.139,2.217-4.4,4.954-2.824A10.912,10.912,0,0,1,460.433,217.415Z" transform="translate(-434.974 -199.211)" fill="#fff"/>
          <path id="Path_14024" data-name="Path 14024" d="M475.443,226.081c0,3.139-2.218,4.4-4.954,2.824a10.912,10.912,0,0,1-4.954-8.544c0-3.139,2.217-4.4,4.954-2.824A10.915,10.915,0,0,1,475.443,226.081Z" transform="translate(-434.432 -198.898)" fill="#fff"/>
          <path id="Path_14025" data-name="Path 14025" d="M490.453,234.747c0,3.139-2.218,4.4-4.954,2.824a10.914,10.914,0,0,1-4.954-8.544c0-3.14,2.217-4.4,4.954-2.824A10.915,10.915,0,0,1,490.453,234.747Z" transform="translate(-433.89 -198.585)" fill="#fff"/>
          <path id="Path_14026" data-name="Path 14026" d="M505.463,243.413c0,3.139-2.218,4.4-4.954,2.824a10.912,10.912,0,0,1-4.954-8.545c0-3.139,2.217-4.4,4.954-2.823A10.915,10.915,0,0,1,505.463,243.413Z" transform="translate(-433.348 -198.272)" fill="#fff"/>
          <path id="Path_14027" data-name="Path 14027" d="M520.473,252.079c0,3.139-2.218,4.4-4.954,2.824a10.915,10.915,0,0,1-4.955-8.545c0-3.139,2.218-4.4,4.955-2.823A10.915,10.915,0,0,1,520.473,252.079Z" transform="translate(-432.806 -197.959)" fill="#fff"/>
        </g>
      </g>
      <g id="Group_2035" data-name="Group 2035" transform="translate(44.665 45.061)">
        <g id="Group_2028" data-name="Group 2028" transform="translate(0 50.015)" opacity="0.2">
          <path id="Path_14032" data-name="Path 14032" d="M557.283,345.074a13.339,13.339,0,0,1-6.659-1.606L498.989,312.05a7.044,7.044,0,0,1-3.82-6.086c0-2.7,1.676-5.221,4.6-6.909l41.2-27.089a16.4,16.4,0,0,1,8.086-2.056,13.339,13.339,0,0,1,6.659,1.606L614.4,304.962a7.048,7.048,0,0,1,3.82,6.086c0,2.7-1.677,5.221-4.6,6.909l-48.251,25.062A16.4,16.4,0,0,1,557.283,345.074Z" transform="translate(-495.169 -269.91)" fill="#afb6e5" opacity="0"/>
          <path id="Path_14033" data-name="Path 14033" d="M539.032,273.426a16.325,16.325,0,0,1,7.869-2.04,15.651,15.651,0,0,1,3.668.394,11.552,11.552,0,0,1,2.811,1.068c.145-.057,17.319,9.627,17.431,9.691l39.8,22.7a6.992,6.992,0,0,1,3.782,5.88,6.5,6.5,0,0,1-.753,3.15,9.075,9.075,0,0,1-3.463,3.526L566.6,341.533c.011.006-1.346.723-1.338.73a15.426,15.426,0,0,1-7.658,2.123,13.134,13.134,0,0,1-6.451-1.424l-7.654-4.39c-.148.086-14.749-8.652-14.878-8.726L500.37,312.678a7.09,7.09,0,0,1-3.832-5.908,6.39,6.39,0,0,1,.248-1.94,8.432,8.432,0,0,1,3.911-4.77l28.221-19.717C528.789,280.269,538.883,273.512,539.032,273.426Z" transform="translate(-495.12 -269.857)" fill="#abb2e2" opacity="0.048"/>
          <path id="Path_14034" data-name="Path 14034" d="M537.1,274.886a16.442,16.442,0,0,1,11.216-1.689,11.755,11.755,0,0,1,2.736.984c.288-.114,16.8,9.087,17.021,9.216L606.826,305.5a6.947,6.947,0,0,1,3.745,5.674,6.278,6.278,0,0,1-.646,3.034,8.464,8.464,0,0,1-3.185,3.41L566.4,340.794c.023.013-1.257.7-1.239.716a14.449,14.449,0,0,1-7.23,2.189,12.936,12.936,0,0,1-6.243-1.241l-7.525-4.046c-.3.172-14.405-8.118-14.664-8.267l-27.745-16.837c-2.2-1.268-3.841-3.5-3.841-5.731a6.24,6.24,0,0,1,.18-1.875,7.858,7.858,0,0,1,3.537-4.634l25.826-19.3C527.194,281.614,536.8,275.057,537.1,274.886Z" transform="translate(-495.07 -269.803)" fill="#a7addf" opacity="0.095"/>
          <path id="Path_14035" data-name="Path 14035" d="M535.165,276.346a16.207,16.207,0,0,1,7.433-2.008,16.677,16.677,0,0,1,3.459.277,12.019,12.019,0,0,1,2.662.9c.433-.171,16.277,8.547,16.614,8.742l37.705,21.521c2.082,1.2,3.706,3.355,3.706,5.469a6.059,6.059,0,0,1-.54,2.916,7.851,7.851,0,0,1-2.908,3.294l-37.105,22.6c.033.019-1.168.679-1.141.7a13.454,13.454,0,0,1-6.8,2.257,12.734,12.734,0,0,1-6.034-1.059l-7.4-3.7c-.448.258-14.061-7.586-14.449-7.81L503.13,313.936c-2.08-1.2-3.851-3.439-3.851-5.553a6.172,6.172,0,0,1,.112-1.81,7.331,7.331,0,0,1,3.164-4.5l23.432-18.89C525.6,282.958,534.718,276.6,535.165,276.346Z" transform="translate(-495.021 -269.75)" fill="#a3a9dc" opacity="0.143"/>
          <path id="Path_14036" data-name="Path 14036" d="M533.232,277.805a16.208,16.208,0,0,1,7.217-1.991,17.39,17.39,0,0,1,3.355.218,12.336,12.336,0,0,1,2.586.814c.578-.228,15.757,8.007,16.206,8.266l36.658,20.936c1.966,1.135,3.669,3.266,3.669,5.261a5.856,5.856,0,0,1-.434,2.8,7.278,7.278,0,0,1-2.631,3.179l-33.87,22.03c.045.025-1.078.656-1.042.685a12.843,12.843,0,0,1-12.2,1.447l-7.271-3.357c-.6.344-13.717-7.053-14.233-7.351l-26.73-16.174c-1.966-1.136-3.863-3.38-3.862-5.375a6.056,6.056,0,0,1,.044-1.745c.5-1.553,1.021-3.346,2.789-4.366L524.521,284.6C524,284.3,532.635,278.15,533.232,277.805Z" transform="translate(-494.973 -269.697)" fill="#9fa4d8" opacity="0.19"/>
          <path id="Path_14037" data-name="Path 14037" d="M531.3,279.266a16.216,16.216,0,0,1,7-1.976,18.225,18.225,0,0,1,3.251.16,12.8,12.8,0,0,1,2.512.729c.721-.286,15.237,7.466,15.8,7.791l35.609,20.349c1.849,1.068,3.631,3.178,3.631,5.056a5.665,5.665,0,0,1-.327,2.68,6.725,6.725,0,0,1-2.353,3.064l-30.633,21.458c.055.032-.99.634-.945.669a11.428,11.428,0,0,1-5.947,2.391,12.376,12.376,0,0,1-5.617-.7l-7.144-3.013c-.745.43-13.373-6.52-14.019-6.893l-26.221-15.842c-1.85-1.068-3.873-3.319-3.873-5.2a5.974,5.974,0,0,1-.022-1.68c.466-1.462.75-3.271,2.415-4.233l18.643-18.064C522.411,285.648,530.555,279.7,531.3,279.266Z" transform="translate(-494.925 -269.643)" fill="#9ba0d5" opacity="0.238"/>
          <path id="Path_14038" data-name="Path 14038" d="M529.367,280.726a16.284,16.284,0,0,1,6.782-1.959,19.429,19.429,0,0,1,3.147.1,13.533,13.533,0,0,1,2.436.644c.866-.343,14.717,6.927,15.39,7.316l34.561,19.763c1.734,1,3.593,3.089,3.593,4.85a5.49,5.49,0,0,1-.221,2.563c-.552,1.006-.867,2.25-2.076,2.948l-27.4,20.887c.066.038-.9.611-.846.654a10.393,10.393,0,0,1-5.518,2.459,12.208,12.208,0,0,1-5.41-.513l-7.017-2.669c-.894.517-13.028-5.988-13.8-6.434l-25.713-15.511c-1.735-1-3.883-3.259-3.883-5.02a5.976,5.976,0,0,1-.09-1.615c.438-1.371.481-3.2,2.041-4.1l16.25-17.651C520.817,286.994,528.473,281.243,529.367,280.726Z" transform="translate(-494.877 -269.591)" fill="#979bd2" opacity="0.286"/>
          <path id="Path_14039" data-name="Path 14039" d="M527.436,282.187A16.358,16.358,0,0,1,534,280.243a20.815,20.815,0,0,1,3.043.042,14.4,14.4,0,0,1,2.361.56c1.01-.4,14.2,6.388,14.981,6.84L587.9,306.862c1.618.934,3.555,3,3.555,4.645a5.35,5.35,0,0,1-.114,2.445c-.516.94-.67,2.181-1.8,2.833L565.38,337.1c.078.044-.81.589-.748.638a9.377,9.377,0,0,1-5.091,2.525,12.026,12.026,0,0,1-5.2-.331l-6.889-2.324c-1.043.6-12.684-5.455-13.588-5.977l-25.206-15.179c-1.618-.935-3.894-3.2-3.894-4.842,0-.456-.3-1.117-.157-1.55.408-1.28.21-3.122,1.667-3.962l13.854-17.238C519.224,288.34,526.392,282.789,527.436,282.187Z" transform="translate(-494.829 -269.538)" fill="#9397cf" opacity="0.333"/>
          <path id="Path_14040" data-name="Path 14040" d="M525.5,283.648a16.514,16.514,0,0,1,6.346-1.928,22.709,22.709,0,0,1,2.939-.016,15.821,15.821,0,0,1,2.286.475c1.154-.457,13.677,5.848,14.573,6.366l32.465,18.591c1.5.867,3.517,2.911,3.517,4.438,0,.7.341,1.694-.007,2.329-.479.871-.474,2.112-1.521,2.717l-20.923,19.744c.088.051-.721.567-.651.623a8.36,8.36,0,0,1-4.662,2.592,11.857,11.857,0,0,1-4.993-.148l-6.761-1.98c-1.194.688-12.341-4.923-13.374-5.518l-24.7-14.848c-1.5-.868-3.9-3.138-3.9-4.665,0-.423-.353-1.083-.225-1.485.379-1.188-.06-3.048,1.292-3.828l11.46-16.824C517.63,289.686,524.311,284.337,525.5,283.648Z" transform="translate(-494.782 -269.486)" fill="#8f92cc" opacity="0.381"/>
          <path id="Path_14041" data-name="Path 14041" d="M523.572,285.109a16.728,16.728,0,0,1,6.13-1.913,25.137,25.137,0,0,1,2.835-.073,17.369,17.369,0,0,1,2.21.389c1.3-.514,13.157,5.308,14.166,5.89l31.415,18c1.388.8,3.479,2.823,3.479,4.233,0,.65.421,1.626.1,2.211-.443.8-.277,2.042-1.243,2.6l-17.688,19.173c.1.057-.632.544-.552.608a7.383,7.383,0,0,1-4.235,2.659,11.679,11.679,0,0,1-4.785.034l-6.633-1.636c-1.342.775-12-4.389-13.159-5.06l-24.189-14.516c-1.387-.8-3.916-3.077-3.914-4.486,0-.391-.411-1.049-.293-1.421.35-1.1-.33-2.973.919-3.693L517.2,291.7C516.037,291.032,522.23,285.883,523.572,285.109Z" transform="translate(-494.735 -269.434)" fill="#8b8ec9" opacity="0.429"/>
          <path id="Path_14042" data-name="Path 14042" d="M521.641,286.57a17.039,17.039,0,0,1,5.912-1.9c.7,0,2.105-.223,2.73-.132a20.261,20.261,0,0,1,2.137.3c1.443-.571,12.635,4.769,13.756,5.417l30.368,17.417c1.272.735,3.441,2.735,3.441,4.026,0,.6.5,1.557.205,2.094-.405.738-.079,1.974-.966,2.486l-14.45,18.6c.11.063-.543.522-.454.593a6.458,6.458,0,0,1-3.808,2.727,11.479,11.479,0,0,1-4.576.216l-6.506-1.292c-1.491.861-11.652-3.856-12.943-4.6l-23.681-14.184c-1.272-.735-3.926-3.017-3.926-4.309,0-.358-.468-1.015-.359-1.355.321-1.005-.6-2.9.544-3.559l6.673-16C514.445,292.378,520.151,287.431,521.641,286.57Z" transform="translate(-494.689 -269.382)" fill="#8789c6" opacity="0.476"/>
          <path id="Path_14043" data-name="Path 14043" d="M519.718,288.033a17.442,17.442,0,0,1,5.694-1.881c.635,0,2.056-.263,2.625-.191.712.091,1.41.078,2.061.22,1.588-.628,12.115,4.228,13.349,4.941l29.319,16.831c1.156.668,3.4,2.646,3.4,3.821,0,.542.58,1.488.312,1.976-.368.67.118,1.905-.688,2.371L564.58,334.15c.121.07-.454.5-.355.578a5.593,5.593,0,0,1-3.38,2.793,11.227,11.227,0,0,1-4.368.4l-6.378-.948c-1.64.947-11.308-3.323-12.729-4.143L514.2,318.975c-1.156-.667-3.936-2.956-3.936-4.13,0-.326-.526-.982-.427-1.291.291-.914-.87-2.824.17-3.424l4.277-15.585C512.861,293.725,518.078,288.98,519.718,288.033Z" transform="translate(-494.649 -269.331)" fill="#8385c2" opacity="0.524"/>
          <path id="Path_14044" data-name="Path 14044" d="M517.8,289.5a18.014,18.014,0,0,1,5.477-1.864,23.1,23.1,0,0,0,2.522-.249,5.8,5.8,0,0,1,1.986.135c1.731-.686,11.6,3.689,12.94,4.466l28.271,16.245c1.04.6,3.364,2.557,3.364,3.614,0,.488.66,1.421.419,1.859-.332.6.315,1.836-.41,2.255l-7.978,17.46c.133.076-.364.477-.257.562a4.815,4.815,0,0,1-2.951,2.861,10.95,10.95,0,0,1-4.16.58l-6.252-.6c-1.789,1.032-10.964-2.791-12.513-3.685l-22.665-13.521c-1.041-.6-3.947-2.9-3.947-3.953,0-.293-.584-.948-.5-1.226.263-.823-1.14-2.75-.2-3.291l1.884-15.171C511.277,295.073,516.006,290.528,517.8,289.5Z" transform="translate(-494.611 -269.281)" fill="#7f80bf" opacity="0.571"/>
          <path id="Path_14045" data-name="Path 14045" d="M515.9,290.959a18.743,18.743,0,0,1,5.259-1.849,17.944,17.944,0,0,0,2.418-.308,5.442,5.442,0,0,1,1.911.05c1.876-.742,11.075,3.15,12.533,3.991L565.239,308.5c.925.535,3.328,2.469,3.328,3.409,0,.433.739,1.351.524,1.741-.294.537.512,1.768-.133,2.139l-4.741,16.888c.143.083-.276.454-.16.546a4.137,4.137,0,0,1-2.523,2.928,10.6,10.6,0,0,1-3.952.763l-6.125-.259c-1.937,1.119-10.619-2.259-12.3-3.228L517,320.239c-.925-.534-3.957-2.836-3.957-3.775,0-.261-.641-.914-.563-1.161.233-.731-1.41-2.675-.578-3.155L511.4,297.39C509.717,296.421,513.959,292.078,515.9,290.959Z" transform="translate(-494.597 -269.23)" fill="#7b7cbc" opacity="0.619"/>
          <path id="Path_14046" data-name="Path 14046" d="M514.064,292.423a19.849,19.849,0,0,1,5.043-1.832,20.386,20.386,0,0,1,2.314-.366,9.843,9.843,0,0,1,1.835-.035c2.021-.8,10.555,2.609,12.125,3.516l26.174,15.072c.809.467,3.29,2.381,3.29,3.2,0,.379.818,1.283.631,1.625-.258.469.709,1.7.144,2.024l-1.5,16.316c.154.089-.185.432-.061.531a3.578,3.578,0,0,1-2.095,2.994,10.133,10.133,0,0,1-3.743.944l-6,.086c-2.087,1.205-10.275-1.725-12.082-2.768l-21.65-12.858c-.81-.467-3.968-2.776-3.968-3.6,0-.228-.7-.88-.629-1.1.2-.639-1.68-2.6-.952-3.021l-2.906-14.345C508.224,297.77,511.977,293.628,514.064,292.423Z" transform="translate(-494.65 -269.182)" fill="#7777b9" opacity="0.667"/>
          <path id="Path_14047" data-name="Path 14047" d="M512.234,293.89a21.287,21.287,0,0,1,4.824-1.816c.381,0,1.875-.51,2.21-.425a9.993,9.993,0,0,1,1.76-.12c2.164-.856,10.034,2.07,11.716,3.041l25.126,14.487c.693.4,3.251,2.292,3.251,3,0,.325.9,1.213.738,1.507-.221.4.906,1.629.422,1.908l1.731,15.745c.166.1-.1.41.037.516.212,1.071-.4,2.19-1.667,3.063a9.619,9.619,0,0,1-3.535,1.125l-5.869.43c-2.237,1.291-9.932-1.193-11.869-2.311l-21.141-12.526c-.694-.4-3.979-2.716-3.979-3.42,0-.2-.756-.845-.7-1.031.175-.549-1.95-2.527-1.326-2.887l-5.3-13.932C506.731,299.122,510,295.181,512.234,293.89Z" transform="translate(-494.703 -269.135)" fill="#7373b6" opacity="0.714"/>
          <path id="Path_14048" data-name="Path 14048" d="M510.4,295.356a23.552,23.552,0,0,1,4.608-1.8c.317,0,1.827-.553,2.1-.482a10.075,10.075,0,0,1,1.686-.205c2.309-.914,9.515,1.53,11.308,2.565l24.078,13.9c.577.334,3.213,2.2,3.213,2.79,0,.271.978,1.145.844,1.389-.184.336,1.1,1.559.7,1.793l4.968,15.174c.176.1-.007.387.135.5a2.822,2.822,0,0,1-1.239,3.129,9,9,0,0,1-3.327,1.308l-5.741.775c-2.385,1.377-9.587-.66-11.653-1.853l-20.634-12.2c-.577-.334-3.988-2.655-3.988-3.242,0-.163-.814-.811-.765-.967.146-.457-2.22-2.452-1.7-2.752l-7.694-13.518C505.239,300.473,508.018,296.733,510.4,295.356Z" transform="translate(-494.757 -269.088)" fill="#6f6eb3" opacity="0.762"/>
          <path id="Path_14049" data-name="Path 14049" d="M508.573,296.823a26.876,26.876,0,0,1,4.39-1.785c.254,0,1.778-.6,2-.541a10.143,10.143,0,0,1,1.61-.289c2.455-.972,8.995.99,10.9,2.09L550.5,309.612c.463.267,3.176,2.116,3.176,2.585,0,.217,1.058,1.077.951,1.271-.147.268,1.3,1.491.976,1.677l8.205,14.6c.188.108.083.365.234.485a2.617,2.617,0,0,1-.812,3.2,8.29,8.29,0,0,1-3.119,1.49l-5.614,1.119c-2.534,1.463-9.243-.127-11.438-1.395L522.937,322.78c-.462-.266-4-2.594-4-3.064,0-.131-.872-.778-.832-.9.116-.366-2.491-2.378-2.075-2.617l-10.089-13.106C503.748,301.825,506.039,298.286,508.573,296.823Z" transform="translate(-494.812 -269.042)" fill="#6b6ab0" opacity="0.81"/>
          <path id="Path_14050" data-name="Path 14050" d="M506.745,298.291a32.945,32.945,0,0,1,4.172-1.769c.191,0,1.73-.642,1.9-.6a10.2,10.2,0,0,1,1.536-.375c2.6-1.028,8.473.451,10.492,1.615l21.981,12.728c.347.2,3.137,2.027,3.137,2.379,0,.163,1.138,1.008,1.058,1.154-.111.2,1.5,1.423,1.254,1.561l11.442,14.031c.2.114.171.342.331.47a2.507,2.507,0,0,1-.384,3.263,7.545,7.545,0,0,1-2.91,1.672l-5.486,1.463c-2.683,1.549-8.9.406-11.223-.936l-19.618-11.532c-.346-.2-4.009-2.534-4.009-2.887,0-.1-.929-.744-.9-.836.088-.275-2.76-2.3-2.448-2.484L504.582,304.52C502.258,303.178,504.062,299.841,506.745,298.291Z" transform="translate(-494.868 -268.997)" fill="#6765ac" opacity="0.857"/>
          <path id="Path_14051" data-name="Path 14051" d="M504.918,299.76c.219-.126,3.677-1.753,3.955-1.753.126,0,1.681-.686,1.792-.658a10.209,10.209,0,0,1,1.46-.459c2.743-1.086,7.954-.089,10.085,1.141l20.933,12.141a22.156,22.156,0,0,1,3.1,2.173c0,.108,1.218.939,1.164,1.036-.073.135,1.692,1.353,1.531,1.446l14.678,13.459c.209.121.261.32.43.455a2.488,2.488,0,0,1,.045,3.33,6.832,6.832,0,0,1-2.7,1.855l-5.359,1.807c-2.833,1.636-8.555.939-11.008-.478l-19.11-11.2a36.748,36.748,0,0,1-4.02-2.71c0-.065-.986-.71-.967-.771.058-.183-3.031-2.229-2.823-2.349l-14.877-12.279C500.769,304.532,502.085,301.4,504.918,299.76Z" transform="translate(-494.925 -268.952)" fill="#6361a9" opacity="0.905"/>
          <path id="Path_14052" data-name="Path 14052" d="M503.092,301.231c.11-.063,3.6-1.737,3.737-1.737.064,0,1.633-.731,1.689-.716a10.137,10.137,0,0,1,1.385-.545,13.113,13.113,0,0,1,9.675.666l19.884,11.555c.116.066,3.062,1.849,3.062,1.966,0,.055,1.3.871,1.271.92-.037.066,1.889,1.284,1.809,1.33l17.913,12.888a4.093,4.093,0,0,1,.529.439,2.551,2.551,0,0,1,.472,3.4,6.157,6.157,0,0,1-2.494,2.036l-5.233,2.152c-2.981,1.721-8.21,1.47-10.792-.021L527.4,324.7c-.115-.066-4.031-2.413-4.031-2.531,0-.032-1.044-.676-1.034-.707.029-.091-3.3-2.154-3.2-2.214l-17.271-11.865C499.282,305.888,500.11,302.953,503.092,301.231Z" transform="translate(-494.983 -268.91)" fill="#5f5ca6" opacity="0.952"/>
          <path id="Path_14053" data-name="Path 14053" d="M546.981,335.874l-23.237-13.532-23.237-13.532c-2.71-1.566-2.371-4.3.76-6.107l5.1-2.5c3.13-1.807,7.866-2,10.578-.438L540.186,313.3l23.237,13.532c2.71,1.566,2.371,4.3-.76,6.107l-5.1,2.5C554.428,337.243,549.692,337.44,546.981,335.874Z" transform="translate(-495.042 -268.87)" fill="#5b58a3"/>
        </g>
        <path id="Path_14054" data-name="Path 14054" d="M564.964,282.384l-65.559-24.449v48.622c-.213,1.579.623,3.118,2.559,4.236L546.3,336.467c3.841,2.217,10.549,1.939,14.983-.622h0c2.346-1.354,3.585-3.075,3.664-4.726l.022.008Z" transform="translate(-495.017 -220.328)" fill="url(#linear-gradient)"/>
        <path id="Path_14055" data-name="Path 14055" d="M546.3,287.853l-44.332-25.675c-3.84-2.217-3.359-6.09,1.076-8.651h0c4.435-2.56,11.142-2.838,14.983-.621l44.332,25.675c3.841,2.217,3.359,6.09-1.076,8.651h0C556.844,289.792,550.137,290.071,546.3,287.853Z" transform="translate(-495.017 -220.563)" fill="url(#linear-gradient-2)"/>
        <path id="Path_14056" data-name="Path 14056" d="M561.491,286.6h0c-4.434,2.56-11.142,2.838-14.982.621l-44.333-25.675c-1.956-1.129-2.788-2.688-2.55-4.284-.811,1.921-.085,3.9,2.271,5.263L546.229,288.2c3.84,2.218,10.549,1.94,14.983-.621h0c2.175-1.256,3.4-2.828,3.625-4.365A7.577,7.577,0,0,1,561.491,286.6Z" transform="translate(-495.02 -220.352)" fill="#ffe585"/>
        <g id="Group_2031" data-name="Group 2031" transform="translate(13.692 0.069)" opacity="0.3">
          <path id="Path_14057" data-name="Path 14057" d="M536.227,224.212h0a18.572,18.572,0,0,0-27.843,16.093v24.546h0c0,.015,0,.028,0,.042,0,1.961,2.729,3.551,6.1,3.551s6.1-1.589,6.1-3.551c0-.024-.005-.046-.006-.069h.065V242.9a7.87,7.87,0,0,1,11.791-6.824h0a19.627,19.627,0,0,1,9.848,17.017v31.261h.065c.066,1.927,2.764,3.478,6.089,3.478,3.347,0,6.061-1.571,6.093-3.514h0V255.874A36.539,36.539,0,0,0,536.227,224.212Z" transform="translate(-508.384 -221.705)" fill="url(#linear-gradient-3)"/>
          <path id="Path_14058" data-name="Path 14058" d="M512.118,266.463h0V243.175a17.362,17.362,0,0,1,17.343-17.341,17.072,17.072,0,0,1,8.615,2.338,35.069,35.069,0,0,1,4.912,3.423,35.117,35.117,0,0,0-7.429-5.73,17.066,17.066,0,0,0-8.614-2.339A17.362,17.362,0,0,0,509.6,240.868v23.288h0v1.258q0,.042,0,.084c.035.737,1.019,1.525,2.519,1.946Z" transform="translate(-508.34 -221.64)" fill="url(#radial-gradient-2)" style="mix-blend-mode: color-dodge;isolation: isolate"/>
          <path id="Path_14059" data-name="Path 14059" d="M545.042,285.812h-.022v-30a20.945,20.945,0,0,0-8.146-16.546,20.927,20.927,0,0,1,5.63,14.239v30h.022l.043,1.222c.025.734,1.009,1.526,2.5,1.951Z" transform="translate(-507.355 -221.071)" fill="url(#radial-gradient-3)" style="mix-blend-mode: color-dodge;isolation: isolate"/>
          <g id="Group_2029" data-name="Group 2029" transform="translate(5.06 3.25)">
            <path id="Path_14060" data-name="Path 14060" d="M523.309,229.982a9.989,9.989,0,0,0-9.978,9.978V265.4l-.063,2.183c-.047.182,3.413-.1,3.495-.42l.062-2.182v-25.44A10,10,0,0,1,523.878,230C523.688,229.99,523.5,229.982,523.309,229.982Z" transform="translate(-513.268 -224.656)" fill="url(#linear-gradient-4)"/>
            <path id="Path_14061" data-name="Path 14061" d="M533.645,227.07a16.231,16.231,0,0,0-8.2-2.228,15.865,15.865,0,0,0-3.588.422l.093,0a16.241,16.241,0,0,1,8.2,2.227A34.534,34.534,0,0,1,547.4,257.334V287.26l0,.164c0,.167,3.489-.133,3.494-.42l0-.164V256.914A34.532,34.532,0,0,0,533.645,227.07Z" transform="translate(-512.957 -224.842)" fill="url(#linear-gradient-5)"/>
          </g>
          <path id="Path_14062" data-name="Path 14062" d="M517.173,243.428v23.494c1.38-.431,2.276-1.175,2.317-1.876l0-.018.062-1.35V243.01a9.155,9.155,0,0,1,6.372-8.711A9.15,9.15,0,0,0,517.173,243.428Z" transform="translate(-508.067 -221.251)" opacity="0.5" fill="url(#linear-gradient-6)" style="mix-blend-mode: screen;isolation: isolate"/>
          <g id="Group_2030" data-name="Group 2030" transform="translate(24.049 2.614)" opacity="0.5" style="mix-blend-mode: screen;isolation: isolate">
            <path id="Path_14063" data-name="Path 14063" d="M535.546,225.907a17.613,17.613,0,0,0-3.951-1.679,38.709,38.709,0,0,1,18.789,33.126v29.455c1.664-.4,2.773-1.252,2.786-2.035l0-.161V256.4A35.289,35.289,0,0,0,535.546,225.907Z" transform="translate(-531.595 -224.228)" fill="url(#linear-gradient-7)"/>
          </g>
        </g>
        <path id="Path_14064" data-name="Path 14064" d="M522.568,259.216c0,2.281-3.176,4.13-7.092,4.13s-7.092-1.849-7.092-4.13,3.176-4.131,7.092-4.131S522.568,256.934,522.568,259.216Z" transform="translate(-494.692 -220.43)" fill="#e6e7e8" style="mix-blend-mode: multiply;isolation: isolate"/>
        <ellipse id="Ellipse_176" data-name="Ellipse 176" cx="6.89" cy="4.012" rx="6.89" ry="4.012" transform="translate(47.642 54.166)" fill="#e6e7e8" style="mix-blend-mode: multiply;isolation: isolate"/>
        <g id="Group_2034" data-name="Group 2034" transform="translate(13.692)">
          <path id="Path_14065" data-name="Path 14065" d="M536.227,224.145h0a18.572,18.572,0,0,0-27.843,16.093V260.38h0c0,.014,0,.028,0,.043,0,1.96,2.729,3.55,6.1,3.55s6.1-1.589,6.1-3.55c0-.024-.005-.047-.006-.07h.065V242.837a7.87,7.87,0,0,1,11.791-6.823h0a19.624,19.624,0,0,1,9.848,17.016v26.858h.065c.066,1.927,2.764,3.478,6.089,3.478,3.347,0,6.061-1.571,6.093-3.516h0V255.806A36.537,36.537,0,0,0,536.227,224.145Z" transform="translate(-508.384 -221.638)" fill="#d8d7d7"/>
          <path id="Path_14066" data-name="Path 14066" d="M512.118,261.992h0V243.108a17.363,17.363,0,0,1,17.343-17.343,17.073,17.073,0,0,1,8.615,2.34,34.985,34.985,0,0,1,4.912,3.423,35.082,35.082,0,0,0-7.429-5.73,17.066,17.066,0,0,0-8.614-2.338A17.362,17.362,0,0,0,509.6,240.8v18.884h0v1.258q0,.042,0,.084c.035.738,1.019,1.526,2.519,1.946Z" transform="translate(-508.34 -221.573)" fill="url(#radial-gradient-4)" style="mix-blend-mode: color-dodge;isolation: isolate"/>
          <path id="Path_14067" data-name="Path 14067" d="M545.042,281.343h-.022V255.751a20.944,20.944,0,0,0-8.146-16.546,20.923,20.923,0,0,1,5.63,14.239v25.592h.022l.043,1.222c.025.734,1.009,1.526,2.5,1.952Z" transform="translate(-507.355 -221.004)" fill="#e3e3e3" style="mix-blend-mode: color-dodge;isolation: isolate"/>
          <g id="Group_2032" data-name="Group 2032" transform="translate(5.06 3.25)">
            <path id="Path_14068" data-name="Path 14068" d="M523.309,229.915a9.989,9.989,0,0,0-9.978,9.978v21.036l-.063,2.183c-.047.183,3.413-.1,3.495-.42l.062-2.182V239.473a10,10,0,0,1,7.053-9.54C523.688,229.922,523.5,229.915,523.309,229.915Z" transform="translate(-513.268 -224.589)" fill="#e3e3e3"/>
            <path id="Path_14069" data-name="Path 14069" d="M533.645,227a16.241,16.241,0,0,0-8.2-2.227,15.86,15.86,0,0,0-3.588.422l.093,0a16.231,16.231,0,0,1,8.2,2.227A34.534,34.534,0,0,1,547.4,257.266v25.524l0,.164c0,.167,3.489-.132,3.494-.42l0-.164V256.846A34.535,34.535,0,0,0,533.645,227Z" transform="translate(-512.957 -224.775)" fill="#e3e3e3"/>
          </g>
          <path id="Path_14070" data-name="Path 14070" d="M517.173,243.361v19.09c1.38-.431,2.276-1.175,2.317-1.875l0-.018.062-1.351V242.942a9.156,9.156,0,0,1,6.372-8.711A9.151,9.151,0,0,0,517.173,243.361Z" transform="translate(-508.067 -221.184)" opacity="0.5" fill="url(#linear-gradient-8)" style="mix-blend-mode: screen;isolation: isolate"/>
          <g id="Group_2033" data-name="Group 2033" transform="translate(24.049 2.613)" opacity="0.5" style="mix-blend-mode: screen;isolation: isolate">
            <path id="Path_14071" data-name="Path 14071" d="M535.546,225.84a17.567,17.567,0,0,0-3.951-1.68,38.709,38.709,0,0,1,18.789,33.126v25.052c1.664-.4,2.773-1.251,2.786-2.035l0-.16V256.337A35.288,35.288,0,0,0,535.546,225.84Z" transform="translate(-531.595 -224.16)" fill="url(#linear-gradient-9)"/>
          </g>
          <path id="Path_14072" data-name="Path 14072" d="M529.4,225.829a19.282,19.282,0,0,1,9.065,2.274,34.336,34.336,0,0,0-3.36-2.214,16.241,16.241,0,0,0-8.2-2.227,16.539,16.539,0,0,0-16.5,16.5v.045A19.929,19.929,0,0,1,529.4,225.829Z" transform="translate(-508.311 -221.565)" fill="url(#linear-gradient-10)" style="mix-blend-mode: screen;isolation: isolate"/>
          <path id="Path_14073" data-name="Path 14073" d="M543.842,253.216a21.407,21.407,0,0,0-5.73-17.677c-5.308-5.6-11.707-7.057-15.072-1.681a9.895,9.895,0,0,1,9.9.018,21.777,21.777,0,0,1,10.9,18.835Z" transform="translate(-507.855 -221.318)" fill="url(#linear-gradient-11)" style="mix-blend-mode: screen;isolation: isolate"/>
        </g>
        <path id="Path_14074" data-name="Path 14074" d="M526.945,297.52v9.665l-4.342-2.506v-9.666a11.233,11.233,0,0,1-2.932-6.985c0-3.234,2.285-4.536,5.1-2.908a11.242,11.242,0,0,1,5.1,8.8C529.876,296.261,528.675,297.582,526.945,297.52Z" transform="translate(-494.284 -219.371)" fill="#a77d88" style="mix-blend-mode: multiply;isolation: isolate"/>
      </g>
      <g id="Group_2051" data-name="Group 2051" transform="translate(0 31.545)">
        <path id="Path_13900" data-name="Path 13900" d="M580.74,209.98h-.007a6.913,6.913,0,0,1-2.034-.373.33.33,0,1,1,.209-.626,6.234,6.234,0,0,0,1.839.339.33.33,0,0,1-.007.66Zm1.926-.361a.33.33,0,0,1-.132-.632,3.8,3.8,0,0,0,1.429-1.095.33.33,0,1,1,.512.417,4.44,4.44,0,0,1-1.677,1.283A.323.323,0,0,1,582.666,209.619Zm-5.656-.817a.332.332,0,0,1-.164-.044l-1.713-.986a.33.33,0,1,1,.329-.572l1.713.986a.33.33,0,0,1-.164.616Zm-3.426-1.972a.327.327,0,0,1-.164-.044l-1.713-.986a.33.33,0,0,1,.328-.573l1.713.986a.33.33,0,0,1-.165.617Zm11.562-.133a.333.333,0,0,1-.1-.017.33.33,0,0,1-.209-.417,7.806,7.806,0,0,0,.356-1.857.33.33,0,0,1,.658.05,8.458,8.458,0,0,1-.388,2.014A.33.33,0,0,1,585.145,206.7Zm-14.988-1.839a.326.326,0,0,1-.164-.044l-1.713-.986a.33.33,0,1,1,.329-.572l1.713.986a.33.33,0,0,1-.165.616Zm-3.426-1.972a.333.333,0,0,1-.164-.044l-1.713-.986a.33.33,0,1,1,.329-.573l1.713.986a.33.33,0,0,1-.164.616Zm-3.538-2.052a.324.324,0,0,1-.164-.044l-1.713-.986a.33.33,0,0,1,.329-.573l1.713.986a.33.33,0,0,1-.165.617Zm-3.426-1.972a.327.327,0,0,1-.164-.044l-1.712-.986a.33.33,0,1,1,.328-.572l1.713.986a.33.33,0,0,1-.165.616Zm25.78,3.289a.33.33,0,0,1-.33-.33v-1.976a.33.33,0,1,1,.66,0v1.976A.33.33,0,0,1,585.547,202.151Zm-29.2-5.261a.325.325,0,0,1-.164-.044l-1.713-.986a.33.33,0,1,1,.329-.572l1.713.986a.33.33,0,0,1-.164.616Zm-3.426-1.972a.325.325,0,0,1-.165-.044l-1.1-.633c-.208-.12-.414-.247-.618-.381a.33.33,0,1,1,.362-.552q.29.19.585.361l1.1.633a.33.33,0,0,1-.164.616Zm32.631,3.28a.33.33,0,0,1-.33-.33v-1.976a.33.33,0,0,1,.66,0v1.976A.33.33,0,0,1,585.547,198.2Zm-35.9-5.485a.332.332,0,0,1-.218-.082A17.567,17.567,0,0,1,548,191.214a.33.33,0,1,1,.49-.442,16.534,16.534,0,0,0,1.377,1.363.33.33,0,0,1-.218.579Zm35.9,1.532a.33.33,0,0,1-.33-.33V191.94a.33.33,0,1,1,.66,0v1.976A.33.33,0,0,1,585.547,194.246ZM547,189.79a.33.33,0,0,1-.266-.135c-.391-.534-.764-1.1-1.108-1.677a.33.33,0,1,1,.567-.337c.333.56.694,1.106,1.073,1.623a.33.33,0,0,1-.266.525Zm38.551.5a.33.33,0,0,1-.33-.33v-1.977a.33.33,0,1,1,.66,0v1.977A.33.33,0,0,1,585.547,190.293Zm-40.57-3.9a.33.33,0,0,1-.3-.189c-.289-.613-.546-1.238-.767-1.856a.33.33,0,0,1,.623-.22,19.307,19.307,0,0,0,.741,1.795.33.33,0,0,1-.158.439A.325.325,0,0,1,544.977,186.394Zm40.57-.054a.33.33,0,0,1-.33-.33v-1.977a.33.33,0,1,1,.66,0v1.977A.33.33,0,0,1,585.547,186.34Zm-41.881-3.666a.331.331,0,0,1-.322-.256,14.855,14.855,0,0,1-.326-1.994.33.33,0,0,1,.657-.061,14.318,14.318,0,0,0,.312,1.906.33.33,0,0,1-.247.4A.322.322,0,0,1,543.666,182.674Zm41.881-.287a.33.33,0,0,1-.33-.33v-1.976a.33.33,0,1,1,.66,0v1.976A.33.33,0,0,1,585.547,182.387Zm0-3.953a.33.33,0,0,1-.33-.33v-1.976a.33.33,0,0,1,.66,0V178.1A.33.33,0,0,1,585.547,178.434Zm0-3.953a.33.33,0,0,1-.33-.33v-1.977a.33.33,0,0,1,.66,0v1.977A.33.33,0,0,1,585.547,174.481Zm0-3.953a.33.33,0,0,1-.33-.33v-1.977a.33.33,0,0,1,.66,0V170.2A.33.33,0,0,1,585.547,170.528Zm-42.254,7.586a.33.33,0,0,1-.33-.33v-1.977a.33.33,0,0,1,.66,0v1.977A.33.33,0,0,1,543.293,178.114Zm42.254-11.538a.33.33,0,0,1-.33-.33v-1.977a.33.33,0,0,1,.66,0v1.977A.33.33,0,0,1,585.547,166.576Zm-42.254,7.586a.33.33,0,0,1-.33-.33v-1.977a.33.33,0,1,1,.66,0v1.977A.33.33,0,0,1,543.293,174.161Zm0-3.953a.33.33,0,0,1-.33-.33V167.9a.33.33,0,0,1,.66,0v1.976A.33.33,0,0,1,543.293,170.208Zm42.254-7.577a.33.33,0,0,1-.33-.33v-.857c0-.357-.017-.723-.051-1.088a.33.33,0,0,1,.3-.359.335.335,0,0,1,.359.3c.035.386.053.772.053,1.149v.857A.33.33,0,0,1,585.547,162.631Zm-42.254,3.624a.33.33,0,0,1-.33-.33v-1.976a.33.33,0,1,1,.66,0v1.976A.33.33,0,0,1,543.293,166.255Zm41.885-7.549a.33.33,0,0,1-.322-.256,17.307,17.307,0,0,0-.544-1.861.33.33,0,0,1,.623-.22,18.035,18.035,0,0,1,.565,1.932.33.33,0,0,1-.248.4A.317.317,0,0,1,585.178,158.706Zm-41.885,3.6a.33.33,0,0,1-.33-.33V160a.33.33,0,1,1,.66,0v1.977A.33.33,0,0,1,543.293,162.3Zm40.578-7.319a.331.331,0,0,1-.3-.189c-.273-.58-.581-1.159-.912-1.719a.33.33,0,0,1,.568-.336c.342.577.658,1.174.941,1.773a.331.331,0,0,1-.3.471Zm-40.578,3.366a.33.33,0,0,1-.33-.33v-1.977a.33.33,0,1,1,.66,0v1.977A.33.33,0,0,1,543.293,158.349Zm38.563-6.763a.33.33,0,0,1-.267-.135,19.23,19.23,0,0,0-1.223-1.51.33.33,0,1,1,.49-.441,19.829,19.829,0,0,1,1.267,1.561.329.329,0,0,1-.072.461A.326.326,0,0,1,581.856,151.587Zm-38.563,2.81a.33.33,0,0,1-.33-.33V152.09a.33.33,0,0,1,.66,0v1.977A.33.33,0,0,1,543.293,154.4Zm35.916-5.737a.33.33,0,0,1-.218-.082,14.06,14.06,0,0,0-1.531-1.176.33.33,0,0,1,.364-.551,14.64,14.64,0,0,1,1.6,1.231.33.33,0,0,1-.218.577Zm-35.916,1.783a.33.33,0,0,1-.33-.33v-1.976a.33.33,0,1,1,.66,0v1.976A.33.33,0,0,1,543.293,150.443Zm32.647-3.992a.327.327,0,0,1-.164-.044l-1.713-.986a.33.33,0,0,1,.329-.573l1.713.986a.33.33,0,0,1-.164.616Zm-3.425-1.972a.332.332,0,0,1-.165-.044l-1.713-.986a.33.33,0,1,1,.329-.573l1.713.986a.33.33,0,0,1-.164.616Zm-29.222,2.012a.33.33,0,0,1-.33-.33v-1.977a.33.33,0,1,1,.66,0v1.977A.33.33,0,0,1,543.293,146.491Zm25.8-3.983a.326.326,0,0,1-.165-.044l-1.713-.986a.33.33,0,1,1,.329-.572l1.713.986a.33.33,0,0,1-.164.617Zm-3.426-1.973a.326.326,0,0,1-.164-.044l-1.713-.986a.33.33,0,1,1,.329-.573l1.713.986a.33.33,0,0,1-.164.616Zm-22.369,2a.33.33,0,0,1-.33-.33v-1.977a.33.33,0,1,1,.66,0v1.977A.33.33,0,0,1,543.293,142.538Zm0-3.945a.33.33,0,0,1-.33-.33v-1.184c0-.281.01-.552.029-.816a.338.338,0,0,1,.353-.3.331.331,0,0,1,.306.354c-.018.248-.028.5-.028.767v1.184A.33.33,0,0,1,543.293,138.593Zm18.832-.109a.333.333,0,0,1-.164-.044l-1.713-.986a.33.33,0,1,1,.329-.572l1.713.986a.33.33,0,0,1-.164.616Zm-3.426-1.972a.328.328,0,0,1-.164-.044l-1.713-.986a.33.33,0,0,1,.328-.573l1.713.986a.33.33,0,0,1-.164.616Zm-15.009-1.831a.331.331,0,0,1-.313-.433,5.775,5.775,0,0,1,.977-1.84.33.33,0,1,1,.513.415,5.13,5.13,0,0,0-.863,1.632A.33.33,0,0,1,543.69,134.682Zm11.583-.141a.326.326,0,0,1-.164-.044l-1.713-.986a.33.33,0,1,1,.329-.571l1.713.986a.33.33,0,0,1-.165.616Zm-3.437-1.974a.306.306,0,0,1-.153-.041l-.032-.019a9.386,9.386,0,0,0-1.735-.792.33.33,0,1,1,.208-.627,10.066,10.066,0,0,1,1.856.846.346.346,0,0,1,.138.459A.329.329,0,0,1,551.836,132.566Zm-5.678-.816a.33.33,0,0,1-.133-.632,4.829,4.829,0,0,1,1.966-.4h.1a.33.33,0,0,1-.006.66h-.09a4.174,4.174,0,0,0-1.7.342A.331.331,0,0,1,546.158,131.75Z" transform="translate(-542.963 -130.72)" opacity="0.95" fill="url(#linear-gradient-12)"/>
        <g id="Group_2008" data-name="Group 2008" transform="translate(34.727 34.9)">
          <path id="Path_13902" data-name="Path 13902" d="M615.977,204.967c0,5.845-4.129,8.2-9.223,5.258s-9.224-10.064-9.224-15.909,4.129-8.2,9.224-5.259S615.977,199.122,615.977,204.967Z" transform="translate(-597.2 -187.461)" fill="#fff"/>
          <path id="Path_13903" data-name="Path 13903" d="M610.674,211.6a8.693,8.693,0,0,1-4.3-1.31c-5.177-2.989-9.389-10.254-9.389-16.2,0-4.165,2.125-6.856,5.414-6.856a8.7,8.7,0,0,1,4.3,1.311c5.177,2.989,9.389,10.254,9.389,16.195C616.088,208.912,613.963,211.6,610.674,211.6Zm-8.28-23.7c-2.932,0-4.753,2.374-4.753,6.2,0,5.731,4.064,12.74,9.058,15.623a8.049,8.049,0,0,0,3.975,1.222c2.932,0,4.754-2.373,4.754-6.2,0-5.731-4.064-12.739-9.058-15.623A8.05,8.05,0,0,0,602.394,187.9Z" transform="translate(-596.98 -187.241)" opacity="0.95" fill="url(#linear-gradient-13)"/>
        </g>
        <path id="Path_14135" data-name="Path 14135" d="M603.331,201.43l4.114,9.516,8.318-8.731-3.245-2.746L608.048,207l-2.11-5.065Z" transform="translate(-564.647 -157.159)" opacity="0.95" fill="url(#linear-gradient-14)"/>
      </g>
    </g>
  </g>
</svg>
