<svg xmlns="http://www.w3.org/2000/svg" width="17" height="17" viewBox="0 0 17 17">
  <g id="Iconly_Bold_Image" data-name="Iconly/Bold/Image" transform="translate(0)">
    <g id="Image">
      <path id="Image-2" data-name="Image" d="M12.183,17H4.816A4.664,4.664,0,0,1,0,11.971V5.029A4.664,4.664,0,0,1,4.816,0h7.367A4.664,4.664,0,0,1,17,5.029v6.942A4.664,4.664,0,0,1,12.183,17ZM5.361,11.255c-.427,0-.865.325-1.466,1.087l-.032.041c-.382.484-.775.982-1.166,1.467a.677.677,0,0,0-.138.538.609.609,0,0,0,.279.423A3.5,3.5,0,0,0,4.7,15.3h7.164a3.845,3.845,0,0,0,1.2-.182,3.16,3.16,0,0,0,1.922-1.795,3.192,3.192,0,0,0,.168-2.329,1.923,1.923,0,0,0-.436-.666l0,0a9.19,9.19,0,0,0-1.588-1.357,1.215,1.215,0,0,0-.646-.2,1.593,1.593,0,0,0-1.158.685c-.15.2-.281.418-.418.645l-.088.145-.006.01a4.831,4.831,0,0,1-1.666,1.885,2.114,2.114,0,0,1-1.027.285,2.988,2.988,0,0,1-1.666-.667,4.667,4.667,0,0,0-.7-.416A.952.952,0,0,0,5.361,11.255ZM5.524,3.4A2.125,2.125,0,1,0,7.648,5.525,2.127,2.127,0,0,0,5.524,3.4Z" transform="translate(0)" fill="#74b960"/>
    </g>
  </g>
</svg>
