<svg id="Group_10553" data-name="Group 10553" xmlns="http://www.w3.org/2000/svg" width="11.882" height="12.21" viewBox="0 0 11.882 12.21">
  <g id="Group_10552" data-name="Group 10552" transform="translate(0)">
    <path id="Path_22196" data-name="Path 22196" d="M8.255,6.105a.51.51,0,0,0-.473.32L6.893,8.649H18.775l-.889-2.224a.51.51,0,0,0-.473-.32H16.9V3.787A2.029,2.029,0,0,0,15.887,0H9.781A2.029,2.029,0,0,0,8.764,3.787V6.105ZM9.781,4.07a2.03,2.03,0,0,0,1.526-.69,2.032,2.032,0,0,0,3.053,0,2.03,2.03,0,0,0,1.526.69V6.105H9.781Z" transform="translate(-6.893)"/>
    <path id="Path_22197" data-name="Path 22197" d="M6.876,405.325l.89,2.224a.509.509,0,0,0,.473.319H17.4a.509.509,0,0,0,.472-.319l.89-2.224Z" transform="translate(-6.876 -395.659)"/>
  </g>
</svg>
