<svg xmlns="http://www.w3.org/2000/svg" width="26.524" height="20" viewBox="0 0 26.524 20">
  <g id="hand-money-dollar-coin-icon" transform="translate(-10 24)">
    <path id="Path_26712" data-name="Path 26712" d="M0,8.5H5.36v9.537H0V8.5ZM17.643,0A4.773,4.773,0,1,1,12.87,4.773,4.773,4.773,0,0,1,17.643,0Zm.563,5.952a.619.619,0,0,0-.132-.421,1.22,1.22,0,0,0-.466-.287c-.22-.091-.425-.181-.613-.274a2.116,2.116,0,0,1-.486-.324,1.271,1.271,0,0,1-.313-.423,1.426,1.426,0,0,1-.108-.583,1.251,1.251,0,0,1,.386-.943,1.644,1.644,0,0,1,1.03-.432V1.749h.54v.527a1.512,1.512,0,0,1,.974.509,1.591,1.591,0,0,1,.356,1.062H18.228a.922.922,0,0,0-.136-.542.449.449,0,0,0-.386-.19.441.441,0,0,0-.348.14.567.567,0,0,0-.123.389.543.543,0,0,0,.142.4,1.419,1.419,0,0,0,.458.283c.212.089.408.181.6.278a2.4,2.4,0,0,1,.484.326,1.331,1.331,0,0,1,.317.427,1.346,1.346,0,0,1,.117.585,1.28,1.28,0,0,1-.367.946,1.587,1.587,0,0,1-1,.427v.479h-.538V7.309A1.713,1.713,0,0,1,16.309,6.8a1.6,1.6,0,0,1-.4-1.131h1.14a.889.889,0,0,0,.171.589.6.6,0,0,0,.486.2.477.477,0,0,0,.363-.138.5.5,0,0,0,.134-.371ZM6.439,17.235V9.263h3.586a13.449,13.449,0,0,1,4.559,2.053h2.785c1.261.076,1.921,1.354.7,2.193a5.151,5.151,0,0,1-3.586.557.6.6,0,1,0,0,1.183c.33.026.689-.052,1-.052,1.649,0,3-.317,3.836-1.619l.417-.974,4.143-2.053c2.072-.682,3.545,1.485,2.018,2.994a54.273,54.273,0,0,1-9.224,5.429,6.246,6.246,0,0,1-6.856,0l-3.374-1.74Z" transform="translate(10 -24)" fill="#83dc69" fill-rule="evenodd"/>
  </g>
</svg>
