<svg id="Group_13315" data-name="Group 13315" xmlns="http://www.w3.org/2000/svg" width="13.642" height="13.643" viewBox="0 0 13.642 13.643">
  <path id="Fill_1" data-name="Fill 1" d="M9.781,0H3.868A3.746,3.746,0,0,0,0,4.038V9.611a3.744,3.744,0,0,0,3.868,4.031H9.781a3.738,3.738,0,0,0,3.861-4.031V4.038A3.74,3.74,0,0,0,9.781,0" transform="translate(0 0)" fill="#7da4ef" opacity="0.4"/>
  <path id="Combined_Shape" data-name="Combined Shape" d="M0,5.776V2.761a.6.6,0,1,1,1.193,0V5.776A.6.6,0,1,1,0,5.776ZM0,.6a.6.6,0,1,1,.593.6A.6.6,0,0,1,0,.6Z" transform="translate(6.22 3.625)" fill="#7da4ef"/>
</svg>
