<svg xmlns="http://www.w3.org/2000/svg" width="14" height="13.945" viewBox="0 0 14 13.945">
  <g id="Activity" transform="translate(0 -0.423)">
    <path id="Path_34168" d="M8.913,12.671H3.763a3.811,3.811,0,0,1-2.771-.994A3.8,3.8,0,0,1,0,8.913V3.77A3.821,3.821,0,0,1,.993,1,3.8,3.8,0,0,1,3.763,0H9.371a2.752,2.752,0,0,0-.049.52A2.836,2.836,0,0,0,12.157,3.35,2.915,2.915,0,0,0,12.67,3.3V8.913a3.805,3.805,0,0,1-.992,2.765A3.8,3.8,0,0,1,8.913,12.671ZM5.084,4.983a.529.529,0,0,0-.069,0,.521.521,0,0,0-.347.2L2.587,7.874a.513.513,0,0,0-.111.322.52.52,0,0,0,.96.3l1.739-2.25L7.106,7.763a.526.526,0,0,0,.327.115.521.521,0,0,0,.416-.208l2.011-2.6V5.062a.528.528,0,0,0-.1-.736.514.514,0,0,0-.73.105l-1.7,2.182L5.4,5.093A.522.522,0,0,0,5.084,4.983Z" transform="translate(0 1.697)" fill="#7da4ef"/>
    <ellipse id="Ellipse_742" cx="1.5" cy="2" rx="1.5" ry="2" transform="translate(11 0.423)" fill="#7da4ef" opacity="0.4"/>
  </g>
</svg>
