<svg xmlns="http://www.w3.org/2000/svg" width="13.454" height="15.828" viewBox="0 0 13.454 15.828">
  <g id="Iconly_Bold_Location" data-name="Iconly/Bold/Location" transform="translate(0 0)">
    <g id="Location" transform="translate(0 0)">
      <path id="Location-2" data-name="Location" d="M6.731,15.828a1.075,1.075,0,0,1-.581-.2,17.026,17.026,0,0,1-4.385-4.069A8.219,8.219,0,0,1,0,6.583,6.465,6.465,0,0,1,1.981,1.926,6.751,6.751,0,0,1,6.722,0a6.667,6.667,0,0,1,6.733,6.583,8.223,8.223,0,0,1-1.765,4.981A17.348,17.348,0,0,1,7.3,15.633,1.044,1.044,0,0,1,6.731,15.828ZM6.722,4.572A2.218,2.218,0,0,0,4.507,6.788a2.146,2.146,0,0,0,.65,1.547A2.234,2.234,0,0,0,8.948,6.788,2.235,2.235,0,0,0,6.722,4.572Z" transform="translate(0 0)" fill="#212226"/>
    </g>
  </g>
</svg>
