<svg xmlns="http://www.w3.org/2000/svg" width="11.882" height="8.318" viewBox="0 0 11.882 8.318">
  <path id="rect6507" d="M.4,2.5a.374.374,0,0,0-.4.4v7.526a.374.374,0,0,0,.4.4.374.374,0,0,0,.4-.4V9.233h10.3v1.188a.4.4,0,1,0,.792,0V8.837a.374.374,0,0,0-.4-.4H.792V2.9A.374.374,0,0,0,.4,2.5Zm2.376.4A1.218,1.218,0,0,0,1.584,4.084h0A1.218,1.218,0,0,0,2.773,5.273h0A1.218,1.218,0,0,0,3.961,4.084h0A1.218,1.218,0,0,0,2.773,2.9Zm2.773.792A1.164,1.164,0,0,0,4.357,4.876V6.065H1.98a.374.374,0,0,0-.4.4v.792a.374.374,0,0,0,.4.4h9.9V5.669A1.94,1.94,0,0,0,9.9,3.688Z" transform="translate(0 -2.5)"/>
</svg>
