<svg id="Iconly_Bold_Notification" data-name="Iconly/Bold/Notification" xmlns="http://www.w3.org/2000/svg" width="10" height="12" viewBox="0 0 10 12">
  <g id="Notification">
    <path id="Notification-2" data-name="Notification" d="M4.7,11.98a2.108,2.108,0,0,1-1.008-.44.934.934,0,0,1-.409-.7c0-.3.272-.441.523-.5a14.969,14.969,0,0,1,2.38,0c.251.059.523.2.523.5a.935.935,0,0,1-.409.7,2.117,2.117,0,0,1-1.007.439,2.3,2.3,0,0,1-.3.02A2.115,2.115,0,0,1,4.7,11.98ZM2.214,9.448A2.648,2.648,0,0,1,.508,8.6,2.2,2.2,0,0,1,0,7.173,2.048,2.048,0,0,1,.43,5.787a2.3,2.3,0,0,0,.625-1.71V3.822A3.418,3.418,0,0,1,1.81,1.507,4.128,4.128,0,0,1,4.974,0h.053A4.112,4.112,0,0,1,8.242,1.575a3.371,3.371,0,0,1,.7,2.247v.255a2.36,2.36,0,0,0,.625,1.71A2.045,2.045,0,0,1,10,7.173,2.195,2.195,0,0,1,9.492,8.6a2.65,2.65,0,0,1-1.706.848C6.862,9.528,5.937,9.6,5,9.6A24.047,24.047,0,0,1,2.214,9.448Z" fill="#7da4ef"/>
  </g>
</svg>
