<svg xmlns="http://www.w3.org/2000/svg" width="11.882" height="11.882" viewBox="0 0 11.882 11.882">
  <path id="park-svgrepo-com" d="M12.694,12.1a.594.594,0,1,0,0-1.188v-.594a.594.594,0,1,0,0-1.188V8.535a.594.594,0,0,0-1.188,0v.594H7.941V8.535a.594.594,0,0,0-1.188,0v.594a.594.594,0,1,0,0,1.188v.594a.594.594,0,1,0,0,1.188v.594H4.971V7.941a.582.582,0,0,0-.016-.079,2.372,2.372,0,0,0,1.8-2.3V4.376A2.376,2.376,0,0,0,2,4.376V5.565a2.372,2.372,0,0,0,1.8,2.3.582.582,0,0,0-.016.079v4.753H2v1.188H13.882V12.694H12.694Zm-1.188.594H7.941V12.1h3.565Zm0-1.782H7.941v-.594h3.565Z" transform="translate(-2 -2)" fill="#7da4ef"/>
</svg>
