<svg xmlns="http://www.w3.org/2000/svg" width="20" height="19" viewBox="0 0 20 19">
  <g id="ev-plug-tesla-s-svgrepo-com" transform="translate(-2 -2.5)">
    <path id="Path_26714" data-name="Path 26714" d="M9.5,8.5A1.25,1.25,0,1,0,8.25,7.25,1.25,1.25,0,0,0,9.5,8.5Z"/>
    <path id="Path_26715" data-name="Path 26715" d="M14.5,8.5a1.25,1.25,0,1,0-1.25-1.25A1.25,1.25,0,0,0,14.5,8.5Z"/>
    <path id="Path_26716" data-name="Path 26716" d="M13.5,11.5A1.5,1.5,0,1,1,12,10,1.5,1.5,0,0,1,13.5,11.5Z"/>
    <path id="Path_26717" data-name="Path 26717" d="M7,13a1.5,1.5,0,1,0-1.5-1.5A1.5,1.5,0,0,0,7,13Z"/>
    <path id="Path_26718" data-name="Path 26718" d="M18.5,11.5A1.5,1.5,0,1,1,17,10,1.5,1.5,0,0,1,18.5,11.5Z"/>
    <path id="Path_26719" data-name="Path 26719" d="M9.5,17.5A1.5,1.5,0,1,0,8,16,1.5,1.5,0,0,0,9.5,17.5Z"/>
    <path id="Path_26720" data-name="Path 26720" d="M16,16a1.5,1.5,0,1,1-1.5-1.5A1.5,1.5,0,0,1,16,16Z"/>
    <path id="Path_26721" data-name="Path 26721" d="M18.187,2.5H5.813A10.46,10.46,0,0,0,3.792,4.78,11.065,11.065,0,0,0,2,10.86C2,16.736,6.477,21.5,12,21.5s10-4.764,10-10.64a11.065,11.065,0,0,0-1.792-6.08A10.461,10.461,0,0,0,18.187,2.5ZM20,10.86c0,4.89-3.7,8.64-8,8.64s-8-3.75-8-8.64A9.066,9.066,0,0,1,5.465,5.877,8.537,8.537,0,0,1,6.587,4.5H17.413a8.539,8.539,0,0,1,1.122,1.377A9.066,9.066,0,0,1,20,10.86Z" fill-rule="evenodd"/>
  </g>
</svg>
