<svg xmlns="http://www.w3.org/2000/svg" width="12.442" height="16.168" viewBox="0 0 12.442 16.168">
  <path id="Path_26723" data-name="Path 26723" d="M5.039,2.785c-.25-.737-.474-1.48-.665-2.237C5.083-.228,7.816-.126,8.6.536l-.728,1.73c.392-.515.524-.725.757-1.012a2.208,2.208,0,0,1,.278.216,1.134,1.134,0,0,1,.429.683.715.715,0,0,1-.2.572L7.473,4.671a3.671,3.671,0,0,1-.629-.159c.095-.222.209-.468.3-.691l-.608.655a2.271,2.271,0,0,0-1.617.2L3.227,2.64a.565.565,0,0,1-.146-.363c0-.491.733-.916,1.119-1.076l.84,1.584ZM7.211,6.458,6.88,4.946C8.3,5.209,10.566,8.089,11.3,9.4a12.477,12.477,0,0,1,.971,2.228c.534,1.992.02,3.856-2.141,4.29a27,27,0,0,1-5.3.217c-1.53-.079-3.9-.076-4.519-1.649-1-2.537.832-5.56,2.5-7.41a8.982,8.982,0,0,1,.682-.68A6.528,6.528,0,0,1,5.532,4.963L4.776,6.368l1.1-1.453H6.45l.761,1.542ZM6.507,7.7v.267a2.543,2.543,0,0,1,.729.175,1.449,1.449,0,0,1,.53.4,1.686,1.686,0,0,1,.276.417.968.968,0,0,1,.1.393.47.47,0,0,1-.145.343.484.484,0,0,1-.353.145.5.5,0,0,1-.505-.421.9.9,0,0,0-.632-.659v1.651c.328.089.591.172.784.246a1.6,1.6,0,0,1,.522.321,1.494,1.494,0,0,1,.38.521,1.646,1.646,0,0,1,.133.665,1.734,1.734,0,0,1-.213.846,1.693,1.693,0,0,1-.626.646,2.207,2.207,0,0,1-.982.3v.27a.935.935,0,0,1-.046.341.193.193,0,0,1-.2.107.222.222,0,0,1-.2-.087A.5.5,0,0,1,6,14.308v-.353a2.489,2.489,0,0,1-.812-.218,1.913,1.913,0,0,1-.58-.415,1.741,1.741,0,0,1-.342-.516,1.355,1.355,0,0,1-.111-.526.475.475,0,0,1,.149-.342.5.5,0,0,1,.37-.153.531.531,0,0,1,.3.083.439.439,0,0,1,.171.234,5.122,5.122,0,0,0,.186.5.986.986,0,0,0,.241.316A1.068,1.068,0,0,0,6,13.136V11.291a4.836,4.836,0,0,1-.888-.328,1.492,1.492,0,0,1-.579-.513,1.522,1.522,0,0,1-.222-.857,1.515,1.515,0,0,1,.434-1.119A1.945,1.945,0,0,1,6,7.967V7.708c0-.222.084-.333.25-.333s.255.107.255.324ZM6,10.259V8.739A1.363,1.363,0,0,0,5.483,9a.618.618,0,0,0-.187.493.61.61,0,0,0,.175.474A1.6,1.6,0,0,0,6,10.259Zm.5,1.178v1.74a1.085,1.085,0,0,0,.618-.321.824.824,0,0,0,.218-.565.677.677,0,0,0-.213-.534,1.7,1.7,0,0,0-.624-.32Z" transform="translate(-0.024 -0.002)" fill="#dadad9" fill-rule="evenodd"/>
</svg>
