<svg id="Iconly_Bulk_Password" data-name="Iconly/Bulk/Password" xmlns="http://www.w3.org/2000/svg" width="14.078" height="14.079" viewBox="0 0 14.078 14.079">
  <g id="Password">
    <path id="Fill_1" data-name="Fill 1" d="M10.09,0h-6.1A3.862,3.862,0,0,0,0,4.165V9.914a3.861,3.861,0,0,0,3.988,4.164h6.1a3.863,3.863,0,0,0,3.989-4.164V4.165A3.862,3.862,0,0,0,10.09,0" fill="#7da4ef" opacity="0.4"/>
    <path id="Combined_Shape" data-name="Combined Shape" d="M7.588,3.661a.523.523,0,0,1-.528-.528V2.358H6.124v.774a.529.529,0,0,1-.528.528.522.522,0,0,1-.528-.528V2.358H3.576a1.807,1.807,0,0,1-1.738,1.3A1.83,1.83,0,1,1,1.837,0,1.806,1.806,0,0,1,3.576,1.3H7.588a.528.528,0,0,1,.528.528v1.3A.529.529,0,0,1,7.588,3.661Zm-5.751-2.6a.774.774,0,1,0,.774.774A.779.779,0,0,0,1.837,1.056Z" transform="translate(2.98 5.208)" fill="#7da4ef"/>
  </g>
</svg>
