<svg xmlns="http://www.w3.org/2000/svg" width="11.882" height="11.708" viewBox="0 0 11.882 11.708">
  <g id="restroom-mark-4-svgrepo-com" transform="translate(0 0)">
    <path id="Path_22192" data-name="Path 22192" d="M322.043,7.225a1.733,1.733,0,1,0-1.733-1.733A1.733,1.733,0,0,0,322.043,7.225Z" transform="translate(-312.876 -3.759)"/>
    <path id="Path_22193" data-name="Path 22193" d="M44.048,7.225a1.733,1.733,0,1,0-1.733-1.733A1.733,1.733,0,0,0,44.048,7.225Z" transform="translate(-41.332 -3.759)"/>
    <path id="Path_22194" data-name="Path 22194" d="M283.333,200.378l-2.377-5.594a.273.273,0,0,0-.5,0l-2.377,5.594a1.092,1.092,0,0,0,1,1.519h3.247a1.092,1.092,0,0,0,1-1.519Z" transform="translate(-271.538 -190.189)"/>
    <path id="Path_22195" data-name="Path 22195" d="M4.339,194.619H1.092a1.092,1.092,0,0,0-1,1.519l2.377,5.594a.273.273,0,0,0,.5,0l2.377-5.594a1.092,1.092,0,0,0-1-1.519Z" transform="translate(0 -190.19)"/>
  </g>
</svg>
