<svg xmlns="http://www.w3.org/2000/svg" width="33" height="31.956" viewBox="0 0 33 31.956">
  <path id="electric-car-ev-icon" d="M8.3,9.342c-1.754,0-2.659,1.517-3.2,3.19L3.759,16.784,3.1,15.54c-2.975-.175-3.314,1.5-.365,2.989h0C-.554,20.661-.1,24.381.222,28.511a1.415,1.415,0,0,0,0,.153v2.3a1,1,0,0,0,.986.994H5.459a1,1,0,0,0,.986-.994v-.806h20.1v.806a1,1,0,0,0,1,.994h4.251a1,1,0,0,0,1-.994V29.2c.333-5.371.537-7.554-1.59-9.732l-.537-.806c3.222-1.528,2.954-3.3-.094-3.12l-.577,1.112-1.026-4.122c-.424-1.7-1.434-3.188-3.188-3.188H17.586a3.062,3.062,0,0,0-.032-.32c1.88-.3,2.527-1.284,2.527-3.222V4.643h.373a.478.478,0,0,0,.475-.475V3.625a.478.478,0,0,0-.475-.475H19V.752A.752.752,0,0,0,18.26,0h0a.755.755,0,0,0-.752.752v2.4h-2.2V.752A.755.755,0,0,0,14.544,0h0a.755.755,0,0,0-.752.752v2.4h-1.41a.478.478,0,0,0-.475.475v.553a.478.478,0,0,0,.475.475h.3V5.7c0,1.955.747,3.15,2.779,3.346h0c0,.11.024.209.032.3ZM18.381,5.078h-4v.6h4Zm-.9,17.519h1.343a.349.349,0,0,1,.29.537l-3.169,5.4a.346.346,0,0,1-.478.121.357.357,0,0,1-.161-.371l.454-3.314L14.189,25a.349.349,0,0,1-.354-.344.357.357,0,0,1,.048-.183L17,19.08a.349.349,0,0,1,.644.226ZM7.011,12.192a1.88,1.88,0,0,1,.481-.61,1.958,1.958,0,0,1,1.386-.572H25.019c1.343,0,2.148,1.125,2.417,2.417l1.042,4.3H5.164l1.281-4.278a5.892,5.892,0,0,1,.537-1.254Zm1.16,11.236-3.789-.475c-.892-.1-1.131.269-.827,1.045l.408.991a1.415,1.415,0,0,0,.51.569,1.759,1.759,0,0,0,.846.236l3.367.024c.806,0,1.165-.325.91-1.074a1.826,1.826,0,0,0-1.439-1.316Zm16.682,0,3.776-.475c.892-.1,1.131.269.827,1.045l-.408.991a1.415,1.415,0,0,1-.51.569,1.759,1.759,0,0,1-.846.236l-3.367.024c-.806,0-1.165-.325-.91-1.074a1.826,1.826,0,0,1,1.439-1.316Z" transform="translate(0.001 0)" fill="#7da4ef" fill-rule="evenodd"/>
</svg>
