<svg xmlns="http://www.w3.org/2000/svg" width="14.839" height="14.839" viewBox="0 0 14.839 14.839">
  <g id="Iconly_Bulk_Upload" data-name="Iconly/Bulk/Upload" transform="translate(0 0)">
    <g id="Upload" transform="translate(0 0)">
      <path id="Fill_1" data-name="Fill 1" d="M0,3.3A3.333,3.333,0,0,1,3.357,0H7.038a3.325,3.325,0,0,1,3.349,3.292v8.247a3.333,3.333,0,0,1-3.358,3.3H3.35A3.325,3.325,0,0,1,0,11.547Z" transform="translate(0 14.839) rotate(-90)" fill="#212226" opacity="0.4"/>
      <path id="Fill_3" data-name="Fill 3" d="M9.645,2.326,7.534.168a.546.546,0,0,0-.787,0,.582.582,0,0,0,0,.808L7.9,2.157H.571a.571.571,0,1,0,0,1.143H7.905L6.749,4.483a.582.582,0,0,0,0,.808.545.545,0,0,0,.787,0L9.645,3.135a.582.582,0,0,0,0-.809" transform="translate(4.689 9.809) rotate(-90)" fill="#212226"/>
    </g>
  </g>
</svg>
