<svg id="Group_6413" data-name="Group 6413" xmlns="http://www.w3.org/2000/svg" xmlns:xlink="http://www.w3.org/1999/xlink" width="340" height="175.469" viewBox="0 0 340 175.469">
  <defs>
    <clipPath id="clip-path">
      <rect id="SVGID" width="340" height="175.469" rx="12.56" fill="#7da4ef"/>
    </clipPath>
    <linearGradient id="linear-gradient" x1="-0.605" y1="0.129" x2="1.792" y2="0.849" gradientUnits="objectBoundingBox">
      <stop offset="0" stop-color="#fff"/>
      <stop offset="0.063" stop-color="#dadada"/>
      <stop offset="0.16" stop-color="#a7a7a7"/>
      <stop offset="0.262" stop-color="#7a7a7a"/>
      <stop offset="0.367" stop-color="#545454"/>
      <stop offset="0.475" stop-color="#353535"/>
      <stop offset="0.588" stop-color="#1e1e1e"/>
      <stop offset="0.707" stop-color="#0d0d0d"/>
      <stop offset="0.838" stop-color="#030303"/>
      <stop offset="1"/>
    </linearGradient>
    <linearGradient id="linear-gradient-2" x1="-0.581" y1="0.183" x2="3.084" y2="0.904" xlink:href="#linear-gradient"/>
    <clipPath id="clip-path-2">
      <rect id="SVGID-2" data-name="SVGID" width="47.349" height="34.866" rx="14.808" fill="none"/>
    </clipPath>
    <linearGradient id="linear-gradient-3" x1="0.035" y1="0.009" x2="1.014" y2="1.043" gradientUnits="objectBoundingBox">
      <stop offset="0" stop-color="#663500"/>
      <stop offset="0.265" stop-color="#b18a4b"/>
      <stop offset="0.387" stop-color="#d0ad6a"/>
      <stop offset="0.418" stop-color="#dabb7f"/>
      <stop offset="0.474" stop-color="#e9d09f"/>
      <stop offset="0.528" stop-color="#f4e0b6"/>
      <stop offset="0.579" stop-color="#fae9c4"/>
      <stop offset="0.623" stop-color="#fdedc9"/>
      <stop offset="0.719" stop-color="#fbeac5"/>
      <stop offset="0.793" stop-color="#f6e4bc"/>
      <stop offset="0.858" stop-color="#efd9ab"/>
      <stop offset="0.92" stop-color="#e4c994"/>
      <stop offset="0.978" stop-color="#d6b677"/>
      <stop offset="1" stop-color="#d0ad6a"/>
    </linearGradient>
  </defs>
  <g id="Group_6412" data-name="Group 6412" clip-path="url(#clip-path)">
    <rect id="Rectangle_4066" data-name="Rectangle 4066" width="357.91" height="184.712" transform="translate(-8.955 -4.621)" fill="#f34d4d"/>
    <path id="Path_20341" data-name="Path 20341" d="M0,0H346.556V178.874H0V0Z" transform="translate(-6.556 -1.702)" fill="#7da4ef"/>
    <path id="Path_26943" data-name="Path 26943" d="M0,0,84.672,9.259l46.712,400.76L46.712,400.76Z" transform="matrix(0.798, -0.603, 0.603, 0.798, -78.605, -42.045)" opacity="0.27" fill="url(#linear-gradient)" style="mix-blend-mode: screen;isolation: isolate"/>
    <path id="Path_26944" data-name="Path 26944" d="M0,0,55.371,6.055l46.712,400.76L46.712,400.76Z" transform="translate(105.031 -31.046) rotate(-37.106)" opacity="0.27" fill="url(#linear-gradient-2)" style="mix-blend-mode: screen;isolation: isolate"/>
    <rect id="Rectangle_4072" data-name="Rectangle 4072" width="357.91" height="184.712" transform="translate(-8.955 -4.621)" fill="none"/>
    <g id="Group_6393" data-name="Group 6393" transform="translate(260.61 22.093)">
      <g id="Group_6392" data-name="Group 6392" transform="translate(-3.084)" clip-path="url(#clip-path-2)">
        <path id="Rectangle_4073" data-name="Rectangle 4073" d="M5.084,0h37.18a5.084,5.084,0,0,1,5.084,5.084v24.7a5.085,5.085,0,0,1-5.085,5.085H5.084A5.084,5.084,0,0,1,0,29.781V5.084A5.084,5.084,0,0,1,5.084,0Z" fill="url(#linear-gradient-3)"/>
        <g id="Group_6391" data-name="Group 6391" transform="translate(-4.219 -0.55)">
          <g id="Group_6389" data-name="Group 6389" transform="translate(0.542 0.55)" opacity="0.43" style="mix-blend-mode: screen;isolation: isolate">
            <path id="Path_20308" data-name="Path 20308" d="M136.915,237.039a4.276,4.276,0,1,0-.051-8.552c.466-3.714,1.876-5.634,4.271-5.845h.976l.412.035v-9.132h-.787v8.328a6.093,6.093,0,0,0-.671.023H115.882v.746h22.97c-1.486.988-2.419,2.936-2.773,5.831H116.717v.746h19.71c2.735,0,3.982,1.838,3.982,3.546s-1.247,3.546-3.982,3.546h-19.71v.746h19.4c.565,2.345,1.5,3.885,2.906,4.713H117.7v.746h24.085v7h.786v-7.746l-.4,0C140.156,241.809,137.97,241.222,136.915,237.039Z" transform="translate(-115.882 -213.545)" fill="#d69b6b"/>
            <path id="Path_20309" data-name="Path 20309" d="M169.927,221.9H144.741a6.29,6.29,0,0,0-.668-.023v-8.328h-.787v9.132l.412-.035H144.7c2.385.219,3.778,2.144,4.242,5.845a4.276,4.276,0,1,0-.05,8.552c-1.056,4.182-3.228,4.752-5.261,4.73l-.4,0v7.746h.787v-7h24.084v-.746H146.788c1.405-.828,2.341-2.367,2.906-4.713h19.4v-.746h-19.71c-2.735,0-3.981-1.837-3.981-3.546s1.247-3.546,3.981-3.546h19.71v-.746H149.73c-.354-2.9-1.285-4.843-2.772-5.831h22.97Z" transform="translate(-114.139 -213.545)" fill="#d69b6b"/>
          </g>
          <g id="Group_6390" data-name="Group 6390">
            <path id="Path_20310" data-name="Path 20310" d="M136.4,236.493a4.276,4.276,0,1,0-.051-8.551c.466-3.715,1.876-5.634,4.271-5.845h.976l.412.034V213h-.787v8.328a6.364,6.364,0,0,0-.671.022H115.372v.747h22.97c-1.486.988-2.419,2.936-2.773,5.831H116.207v.746h19.71c2.735,0,3.981,1.837,3.981,3.546s-1.247,3.546-3.981,3.546h-19.71v.746h19.4c.565,2.344,1.5,3.884,2.906,4.712H117.19v.746h24.085v7h.786V241.22l-.4,0C139.646,241.264,137.46,240.676,136.4,236.493Z" transform="translate(-115.372 -213)" fill="#282018"/>
            <path id="Path_20311" data-name="Path 20311" d="M169.417,221.35H144.231a6.294,6.294,0,0,0-.668-.022V213h-.787v9.131l.412-.034h1.005c2.385.219,3.778,2.143,4.242,5.845a4.276,4.276,0,1,0-.05,8.551c-1.056,4.182-3.228,4.752-5.261,4.73l-.4,0v7.747h.787v-7H167.6v-.746H146.278c1.405-.828,2.341-2.367,2.906-4.712h19.4v-.746h-19.71c-2.735,0-3.981-1.838-3.981-3.546s1.247-3.546,3.981-3.546h19.71v-.746H149.22c-.354-2.9-1.285-4.843-2.772-5.831h22.97Z" transform="translate(-113.629 -213)" fill="#282018"/>
          </g>
        </g>
      </g>
    </g>
    <path id="Path_20340" data-name="Path 20340" d="M417.067,146.8V302.732c0,5.4-5.537,9.77-12.367,9.77H89.432a14.109,14.109,0,0,1-8.8-2.915c2.115,2.988,6.153,5.01,10.793,5.01H406.689c6.83,0,12.367-4.375,12.367-9.771V148.9a8.833,8.833,0,0,0-3.561-6.856A8.2,8.2,0,0,1,417.067,146.8Z" transform="translate(-79.055 -139.128)" fill="#fff" opacity="0.37"/>
  </g>
</svg>
