<svg xmlns="http://www.w3.org/2000/svg" width="11.882" height="8.721" viewBox="0 0 11.882 8.721">
  <path id="wifi-high-svgrepo-com" d="M2.031,8.166a7.086,7.086,0,0,1,10.021,0,.545.545,0,0,0,.771-.771,8.176,8.176,0,0,0-11.563,0,.545.545,0,0,0,.771.771ZM3.572,9.707a4.906,4.906,0,0,1,6.938,0,.545.545,0,1,0,.771-.771,6,6,0,0,0-8.48,0,.545.545,0,0,0,.771.771Zm1.542,1.542a2.725,2.725,0,0,1,3.854,0,.545.545,0,1,0,.771-.771,3.816,3.816,0,0,0-5.4,0,.545.545,0,0,0,.771.771Zm.771.771a1.635,1.635,0,0,1,2.313,0,.545.545,0,0,1,0,.771l-.771.771a.545.545,0,0,1-.771,0l-.771-.771A.545.545,0,0,1,5.885,12.02Z" transform="translate(-1.1 -5)" fill-rule="evenodd"/>
</svg>
